<?xml version="1.0" standalone="no"?>
<!DOCTYPE svg PUBLIC "-//W3C//DTD SVG 20010904//EN"
 "http://www.w3.org/TR/2001/REC-SVG-20010904/DTD/svg10.dtd">
<svg version="1.0" xmlns="http://www.w3.org/2000/svg"
 width="2976.000000pt" height="2976.000000pt" viewBox="0 0 2976.000000 2976.000000"
 preserveAspectRatio="xMidYMid meet">

<g transform="translate(0.000000,2976.000000) scale(0.100000,-0.100000)"
fill="#000000" stroke="none">
<path d="M190 27441 l0 -2131 593 0 c597 0 688 4 877 40 264 51 477 138 684
280 364 250 604 666 695 1208 40 239 46 313 46 607 0 283 -7 384 -41 590 -27
162 -84 378 -128 480 -7 17 -19 46 -26 65 -24 63 -112 223 -158 290 -189 270
-400 434 -737 571 -59 24 -194 62 -287 80 -215 42 -216 42 -875 46 l-643 4 0
-2130z m1360 1725 c128 -25 234 -53 324 -88 240 -92 442 -262 582 -488 193
-312 288 -809 255 -1338 -23 -370 -80 -627 -192 -857 -188 -390 -508 -619
-969 -694 -140 -22 -368 -32 -670 -29 l-315 3 -3 1758 -2 1759 452 -5 c366 -3
469 -7 538 -21z"/>
<path d="M11471 29466 c-8 -9 -11 -74 -9 -212 l3 -199 193 -3 192 -2 0 203 c0
145 -3 206 -12 215 -18 18 -352 17 -367 -2z"/>
<path d="M15613 29473 c-10 -3 -13 -56 -13 -214 l0 -209 190 2 191 3 0 203 c0
111 -3 207 -6 212 -6 10 -339 13 -362 3z"/>
<path d="M4755 28398 c-381 -48 -651 -216 -867 -540 -90 -134 -185 -367 -218
-533 -6 -33 -16 -80 -21 -105 -17 -85 -29 -252 -29 -399 0 -483 123 -869 372
-1168 102 -123 293 -268 409 -312 19 -7 43 -17 54 -22 114 -48 239 -69 412
-69 211 0 352 33 525 121 453 234 718 769 718 1448 0 205 -25 419 -67 571 -8
30 -20 73 -25 95 -6 22 -15 44 -19 50 -5 5 -9 15 -9 23 0 7 -19 55 -42 105
-151 330 -374 549 -675 665 -102 39 -140 48 -283 67 -126 16 -133 16 -235 3z
m275 -353 c249 -58 442 -223 568 -485 175 -366 200 -917 60 -1335 -105 -313
-313 -536 -568 -608 -110 -31 -211 -40 -310 -27 -239 31 -412 136 -556 336
-40 55 -124 211 -124 229 0 4 -6 21 -14 38 -70 156 -109 430 -102 702 6 215
21 310 80 501 85 273 249 482 460 584 55 27 133 56 171 64 92 19 254 20 335 1z"/>
<path d="M8045 28399 c-265 -38 -457 -111 -648 -247 -93 -67 -224 -186 -258
-236 -13 -20 -27 -36 -31 -36 -5 0 -8 103 -8 228 0 126 -2 231 -4 233 -2 2
-83 3 -180 1 l-176 -3 0 -1514 0 -1515 180 0 180 0 0 1113 0 1113 103 100
c233 227 403 339 603 396 64 18 104 23 214 23 144 0 199 -10 284 -52 100 -50
177 -162 213 -308 15 -63 17 -182 20 -1227 l4 -1158 179 0 180 0 0 1109 0
1109 58 62 c136 147 343 308 482 377 139 68 222 88 380 88 86 0 153 -5 185
-14 171 -48 260 -152 313 -365 12 -52 15 -235 19 -1213 l4 -1153 180 0 180 0
-3 1193 c-3 1093 -5 1199 -21 1277 -68 327 -236 522 -507 591 -91 24 -251 37
-322 27 -244 -33 -439 -104 -638 -233 -102 -67 -258 -199 -303 -259 -15 -20
-32 -36 -37 -36 -5 0 -15 19 -22 43 -6 23 -32 82 -57 132 -78 156 -204 261
-376 314 -56 18 -284 55 -305 50 -3 -1 -32 -5 -65 -10z"/>
<path d="M13955 28399 c-211 -30 -339 -68 -494 -144 -156 -76 -319 -198 -425
-318 l-55 -62 -1 222 c0 122 -2 227 -5 235 -4 10 -43 13 -183 11 l-177 -2 -3
-1516 -2 -1515 185 0 185 0 0 1113 0 1114 113 109 c151 148 303 261 424 315
27 11 62 27 78 35 123 55 369 80 496 51 192 -46 304 -155 366 -357 15 -50 17
-163 20 -1217 l4 -1163 184 0 185 0 0 1098 c0 1058 -4 1237 -31 1372 -61 301
-236 505 -499 582 -53 15 -281 51 -300 47 -3 -1 -32 -5 -65 -10z"/>
<path d="M17700 28395 c-274 -39 -479 -137 -660 -315 -243 -238 -383 -571
-425 -1005 -44 -446 25 -873 190 -1183 96 -181 221 -332 359 -436 41 -31 77
-56 80 -56 3 0 27 -13 53 -28 151 -88 287 -121 498 -122 212 0 321 23 483 101
163 79 311 217 436 404 63 95 179 323 170 336 -3 5 -29 20 -57 33 -29 13 -92
43 -140 66 -49 23 -89 40 -90 38 -1 -1 -31 -61 -66 -131 -34 -71 -90 -164
-122 -207 -56 -74 -183 -200 -202 -200 -5 0 -21 -9 -36 -20 -41 -29 -163 -65
-268 -80 -104 -14 -196 -5 -313 31 -275 87 -484 353 -573 729 -49 207 -65 424
-48 639 45 558 240 890 606 1031 66 26 132 35 255 35 115 0 145 -4 204 -23
134 -45 210 -93 299 -189 85 -92 152 -201 219 -360 l26 -63 134 65 c173 85
163 79 161 110 -3 43 -117 263 -185 360 -85 119 -192 225 -294 291 -46 30 -86
54 -89 54 -3 0 -24 9 -48 19 -86 39 -190 64 -332 81 -104 11 -111 11 -225 -5z"/>
<path d="M20520 28395 c-170 -19 -289 -49 -455 -115 -74 -29 -109 -47 -220
-110 -113 -63 -369 -271 -395 -320 -8 -15 -5 -26 18 -52 15 -18 59 -73 96
-121 l69 -89 56 55 c84 81 99 94 188 158 141 103 308 179 500 230 112 29 372
38 463 15 258 -65 380 -267 380 -628 0 -71 -1 -128 -2 -128 -4 0 -113 -19
-170 -30 -117 -21 -389 -83 -438 -100 -14 -4 -59 -18 -100 -30 -114 -32 -284
-91 -294 -101 -6 -5 -16 -9 -24 -9 -16 0 -237 -107 -303 -147 -197 -118 -342
-261 -432 -425 -100 -181 -127 -446 -71 -678 57 -231 219 -399 460 -475 211
-67 496 -51 774 45 76 26 227 100 288 141 24 16 45 29 48 29 9 0 148 114 207
169 l57 54 0 -53 c0 -54 25 -232 40 -285 4 -16 11 -42 14 -57 l6 -28 186 0
186 0 -5 28 c-2 15 -14 70 -25 122 -43 205 -44 233 -46 1224 -2 839 -4 960
-18 1031 -53 257 -151 426 -312 539 -118 82 -217 116 -416 141 -131 17 -152
17 -310 0z m700 -1865 l0 -468 -67 -69 c-187 -189 -450 -331 -703 -382 -144
-28 -252 -34 -345 -17 -208 37 -327 142 -375 331 -24 96 -25 169 -5 265 78
369 500 613 1370 792 28 5 64 13 80 17 17 4 33 6 38 4 4 -2 7 -215 7 -473z"/>
<path d="M23645 28395 c-283 -39 -520 -138 -725 -302 -65 -53 -210 -194 -210
-205 0 -4 -4 -8 -10 -8 -6 0 -10 83 -10 230 l0 230 -180 0 -180 0 0 -1515 0
-1515 180 0 180 0 0 1110 0 1109 33 37 c64 71 242 227 331 289 215 149 413
213 635 202 224 -10 366 -93 439 -258 34 -77 41 -102 57 -199 13 -81 15 -262
15 -1192 l0 -1098 180 0 181 0 -4 1198 c-4 1276 -2 1221 -51 1378 -74 237
-237 404 -461 473 -56 18 -285 55 -305 50 -3 -1 -45 -7 -95 -14z"/>
<path d="M11474 28341 c-2 -2 -4 -685 -4 -1518 l0 -1513 180 0 180 0 0 1515 0
1514 -176 3 c-97 2 -178 1 -180 -1z"/>
<path d="M15610 26825 l0 -1515 180 0 180 0 0 1515 0 1515 -180 0 -180 0 0
-1515z"/>
<path d="M192 20488 l3 -2133 160 -3 c88 -1 170 0 182 3 l23 5 0 949 c0 521 2
950 4 952 2 2 218 3 479 1 l474 -2 61 -123 c139 -280 633 -1281 750 -1517 69
-140 130 -258 136 -262 13 -9 400 -11 408 -2 4 3 -212 442 -478 975 -266 533
-484 972 -484 974 0 2 19 9 43 16 323 88 530 216 673 416 243 339 272 960 62
1332 -71 126 -177 240 -303 323 -127 85 -239 132 -410 173 -190 46 -214 47
-1018 52 l-767 5 2 -2134z m1638 1724 c97 -21 131 -30 185 -52 173 -69 288
-168 360 -309 52 -103 75 -227 75 -403 0 -256 -42 -402 -155 -541 -107 -132
-266 -211 -508 -254 -90 -16 -168 -18 -662 -18 l-560 0 -3 803 -2 803 582 -3
c557 -4 588 -5 688 -26z"/>
<path d="M12292 20488 l3 -2133 175 0 175 0 5 199 5 199 75 -78 c144 -149 308
-255 488 -315 174 -58 330 -72 498 -45 225 36 396 119 548 264 295 283 436
703 436 1296 0 407 -55 681 -190 960 -153 314 -381 506 -695 585 -108 27 -309
33 -420 11 -257 -49 -505 -193 -674 -393 l-66 -78 -5 828 -5 827 -178 3 -177
2 2 -2132z m1305 612 c203 -28 373 -130 503 -305 143 -192 224 -475 236 -834
26 -717 -194 -1179 -616 -1297 -102 -29 -340 -26 -440 5 -188 58 -336 158
-532 359 l-98 99 0 742 0 741 133 133 c225 228 400 328 620 356 90 12 107 12
194 1z"/>
<path d="M15362 20488 l3 -2133 178 -3 177 -2 0 2135 0 2135 -180 0 -180 0 2
-2132z"/>
<path d="M16504 22507 c-2 -7 -3 -102 -2 -212 l3 -200 185 0 185 0 3 213 2
212 -185 0 c-141 0 -187 -3 -191 -13z"/>
<path d="M4395 21444 c-200 -28 -337 -79 -495 -185 -295 -197 -498 -543 -574
-979 -82 -465 -19 -969 165 -1335 169 -334 436 -550 789 -637 75 -18 405 -18
480 1 352 87 604 272 797 585 24 39 43 75 43 81 0 13 -204 195 -218 195 -5 0
-15 -12 -23 -27 -74 -147 -225 -311 -359 -390 -157 -92 -274 -124 -461 -124
-184 -1 -319 40 -454 136 -246 175 -404 516 -422 908 l-6 127 983 0 c541 0
985 2 987 4 10 9 -19 409 -37 516 -63 373 -196 658 -397 851 -138 132 -266
204 -445 248 -84 20 -285 35 -353 25z m262 -350 c148 -33 283 -121 378 -244
84 -109 164 -288 196 -438 13 -64 39 -241 39 -274 l0 -28 -806 0 -806 0 6 48
c71 511 301 838 656 931 93 25 243 27 337 5z"/>
<path d="M7440 21444 c-268 -30 -510 -151 -713 -355 -60 -60 -111 -109 -113
-109 -2 0 -4 92 -4 205 l0 205 -180 0 -180 0 2 -2092 3 -2093 175 0 175 0 5
774 5 774 79 -81 c160 -164 359 -283 556 -333 152 -39 293 -47 432 -24 498 81
829 459 942 1075 29 160 36 253 36 485 0 327 -27 523 -105 760 -143 434 -424
710 -805 791 -67 14 -249 25 -310 18z m140 -348 c370 -61 604 -351 696 -861
26 -143 26 -605 0 -750 -82 -461 -269 -721 -591 -821 -48 -15 -91 -18 -220
-18 -148 0 -166 3 -240 28 -179 61 -308 148 -487 327 l-128 128 0 734 0 735
27 34 c49 61 157 169 234 234 153 128 307 204 468 229 114 17 140 18 241 1z"/>
<path d="M18615 21444 c-70 -8 -184 -34 -248 -56 -296 -101 -528 -315 -678
-624 -33 -66 -59 -127 -59 -135 0 -8 -4 -19 -9 -24 -4 -6 -14 -30 -20 -55 -7
-25 -17 -61 -22 -80 -83 -291 -94 -749 -25 -1090 98 -490 395 -880 778 -1024
138 -52 193 -61 373 -61 215 0 321 23 480 102 177 88 326 232 454 437 52 83
151 276 151 294 0 11 -258 142 -281 142 -5 0 -31 -46 -59 -102 -156 -317 -321
-469 -564 -519 -478 -99 -863 220 -980 811 -38 194 -47 492 -21 705 59 476
281 800 620 908 186 59 423 35 584 -60 78 -47 177 -144 236 -234 38 -57 128
-233 148 -291 4 -10 10 -18 14 -17 4 0 73 33 153 72 120 60 144 76 142 92 -2
11 -29 74 -62 140 -183 376 -407 571 -743 649 -69 16 -288 28 -362 20z"/>
<path d="M9293 20183 c3 -1044 6 -1216 19 -1269 54 -215 127 -347 250 -451 66
-57 120 -88 204 -117 125 -44 173 -51 329 -50 121 0 167 5 240 23 284 71 494
186 697 381 59 56 109 101 113 101 3 -1 7 -101 8 -224 l2 -222 180 0 180 0 3
1518 2 1517 -182 -2 -183 -3 -3 -1117 -2 -1116 -93 -88 c-99 -93 -247 -215
-312 -256 -272 -171 -538 -219 -780 -141 -110 35 -204 125 -253 240 -58 135
-55 79 -59 1331 l-4 1152 -180 0 -180 0 4 -1207z"/>
<path d="M16522 19873 l3 -1518 155 -3 c85 -1 165 0 178 3 l22 5 0 1515 0
1515 -180 0 -180 0 2 -1517z"/>
<path d="M170 14495 l0 -85 14710 0 14710 0 0 85 0 85 -14710 0 -14710 0 0
-85z"/>
<path d="M11710 11374 c-63 -20 -128 -39 -145 -44 -27 -7 -130 -38 -335 -101
-36 -11 -101 -31 -145 -44 -44 -13 -109 -32 -145 -43 -36 -11 -135 -41 -220
-66 -85 -25 -158 -50 -163 -55 -4 -4 -7 -26 -5 -47 3 -35 9 -43 78 -91 272
-193 423 -305 432 -318 10 -13 10 -4936 0 -4951 -4 -7 -45 -25 -92 -42 -91
-33 -205 -75 -310 -114 -63 -24 -65 -26 -68 -63 -2 -21 -1 -49 3 -62 l5 -23
838 2 837 3 3 61 3 61 -48 18 c-26 10 -68 27 -93 38 -92 40 -106 46 -156 64
-27 11 -64 26 -82 34 l-32 14 0 1363 0 1363 103 49 c226 108 389 145 637 145
165 0 180 -2 260 -28 211 -69 341 -238 399 -516 6 -30 16 -118 21 -195 10
-149 14 -2126 4 -2163 -3 -11 -13 -23 -22 -26 -16 -5 -145 -57 -187 -76 -69
-31 -116 -50 -157 -66 l-48 -18 0 -63 0 -64 839 0 839 0 4 61 c3 58 1 62 -22
71 -14 6 -67 25 -117 44 -51 19 -135 49 -185 68 -51 19 -105 39 -120 45 l-28
11 0 1269 c0 1419 1 1391 -72 1621 -132 417 -438 649 -867 659 -92 2 -179 -9
-311 -41 -275 -67 -570 -251 -858 -537 -45 -45 -89 -81 -97 -81 -13 0 -15 170
-15 1438 0 1381 -1 1440 -18 1455 -10 10 -20 17 -23 16 -2 0 -56 -16 -119 -35z"/>
<path d="M19320 11365 c-80 -24 -199 -60 -265 -80 -66 -20 -133 -41 -150 -45
-16 -5 -100 -29 -185 -55 -85 -26 -168 -51 -185 -55 -16 -5 -84 -25 -150 -45
-66 -21 -131 -40 -145 -42 -50 -11 -77 -62 -52 -99 6 -10 124 -96 409 -297
l102 -72 1 -2581 c0 -2053 3 -2584 13 -2592 11 -9 80 -31 162 -52 17 -5 55
-15 85 -23 441 -119 1066 -172 1350 -116 286 56 421 101 620 206 327 172 595
440 775 776 121 228 182 415 237 727 18 103 18 614 0 730 -48 310 -101 488
-213 716 -184 377 -483 654 -804 744 -182 51 -295 60 -456 36 -334 -52 -602
-189 -847 -434 -76 -75 -96 -91 -108 -81 -12 10 -14 215 -14 1389 0 1247 -1
1378 -16 1384 -9 3 -16 6 -17 5 -1 0 -67 -20 -147 -44z m945 -2799 c157 -29
277 -80 395 -171 108 -83 222 -229 277 -354 14 -31 33 -74 43 -96 24 -54 65
-196 89 -313 88 -419 59 -1110 -63 -1507 -61 -202 -135 -338 -248 -460 -118
-127 -245 -185 -423 -193 -278 -12 -539 92 -764 306 l-71 67 2 1300 3 1300 45
22 c77 38 241 84 360 102 89 14 269 12 355 -3z"/>
<path d="M2926 10602 c-146 -142 -198 -187 -208 -184 -6 1 -33 17 -62 35 -135
86 -337 165 -508 198 -613 119 -1250 -157 -1575 -682 -164 -264 -231 -503
-238 -839 -2 -80 1 -172 6 -205 26 -171 34 -208 61 -300 55 -188 151 -357 290
-515 139 -157 307 -280 541 -394 172 -84 168 -82 447 -201 588 -252 881 -457
981 -685 11 -25 24 -54 29 -65 34 -79 60 -243 60 -390 0 -350 -152 -639 -422
-802 -136 -83 -281 -111 -483 -94 -230 19 -382 74 -566 203 -331 231 -609 632
-882 1273 -27 61 -39 80 -53 79 -11 -1 -45 -5 -76 -9 l-58 -6 0 -49 c0 -27 4
-127 9 -222 6 -95 15 -276 21 -403 6 -126 15 -315 20 -420 5 -104 14 -289 20
-410 6 -121 13 -244 16 -272 l6 -53 62 0 61 0 149 144 150 144 65 -32 c233
-116 514 -204 741 -231 30 -4 64 -9 75 -11 55 -13 415 -6 495 9 419 78 753
271 1005 582 254 313 376 672 378 1115 2 397 -94 673 -331 945 -172 199 -457
386 -857 565 -27 12 -72 32 -100 45 -62 28 -116 52 -225 100 -514 227 -744
423 -843 715 -35 102 -42 157 -42 340 0 210 10 258 87 412 59 118 180 238 298
296 207 102 452 93 685 -23 304 -152 596 -506 867 -1052 55 -112 105 -203 111
-203 11 0 130 22 135 25 2 2 -8 156 -33 460 -8 105 -20 253 -25 330 -6 77 -12
151 -15 165 -2 14 -7 72 -10 130 -3 58 -10 148 -15 200 -5 52 -12 140 -15 195
-9 141 -5 135 -77 135 l-61 0 -91 -88z"/>
<path d="M8998 9999 c-35 -51 -124 -179 -198 -285 -74 -107 -166 -239 -204
-294 -77 -110 -90 -124 -321 -325 -88 -77 -165 -144 -171 -150 -6 -5 -70 -62
-142 -125 l-132 -114 0 -58 0 -58 275 0 275 0 1 -1227 c0 -676 3 -1280 5
-1343 17 -432 169 -682 464 -763 111 -30 205 -39 341 -34 149 6 180 10 324 38
264 51 518 147 740 282 69 41 70 43 73 87 5 71 -9 81 -96 70 -111 -14 -507
-14 -567 0 -350 84 -458 220 -485 609 -5 82 -10 611 -10 1213 l0 1068 568 2
567 3 3 204 c2 157 -1 206 -10 213 -7 4 -264 8 -570 8 l-558 0 0 535 0 535
-55 0 -54 0 -63 -91z"/>
<path d="M26553 9683 c-8 -21 -28 -72 -43 -113 -15 -41 -64 -174 -109 -295
-46 -121 -117 -310 -158 -420 -41 -110 -104 -279 -140 -375 -36 -96 -69 -184
-73 -195 -25 -60 -160 -423 -160 -428 0 -14 158 -7 172 7 7 7 114 156 238 331
124 174 417 587 653 917 235 330 427 602 427 604 0 2 -178 4 -396 4 l-395 0
-16 -37z"/>
<path d="M5635 9144 c-521 -72 -917 -316 -1206 -745 -64 -96 -189 -332 -189
-359 0 -9 -4 -20 -9 -25 -11 -12 -74 -213 -95 -305 -97 -414 -75 -919 59
-1360 24 -78 103 -265 142 -333 18 -33 33 -61 33 -63 0 -14 114 -172 179 -247
266 -309 631 -483 1081 -516 263 -19 563 22 775 108 552 222 941 716 1084
1376 40 186 46 251 45 525 0 307 -15 441 -78 690 -205 804 -796 1273 -1596
1268 -74 -1 -175 -7 -225 -14z m336 -242 c374 -104 616 -565 681 -1302 24
-276 12 -853 -22 -1060 -52 -316 -91 -464 -166 -628 -13 -29 -24 -55 -24 -57
0 -3 -25 -45 -55 -94 -141 -228 -327 -341 -561 -341 -358 0 -647 319 -773 851
-69 295 -90 499 -91 887 0 589 68 988 225 1307 113 230 252 370 427 429 94 33
257 36 359 8z"/>
<path d="M16334 9144 c-328 -50 -621 -197 -871 -438 -279 -268 -471 -603 -572
-996 -5 -19 -14 -53 -20 -75 -38 -152 -66 -468 -56 -635 23 -382 90 -661 224
-927 233 -462 616 -756 1111 -852 481 -94 901 5 1370 323 183 124 420 326 420
358 0 16 -24 73 -36 87 -1 2 -45 -15 -98 -37 -238 -103 -522 -175 -806 -207
-262 -29 -410 -17 -635 52 -30 10 -144 71 -195 106 -65 44 -168 152 -218 227
-115 174 -197 403 -238 665 -33 209 -58 624 -40 653 5 9 291 12 1160 12 l1154
0 -4 88 c-19 376 -74 622 -197 872 -159 322 -416 550 -742 658 -221 73 -497
99 -711 66z m321 -244 c97 -41 127 -62 195 -130 73 -73 133 -169 169 -270 7
-19 17 -44 21 -55 20 -51 40 -135 64 -270 21 -118 40 -301 41 -388 l0 -49 -55
-4 c-81 -5 -436 -24 -660 -34 -107 -6 -287 -14 -400 -20 -113 -5 -237 -12
-277 -14 -40 -3 -74 -2 -76 2 -5 9 18 231 32 312 58 324 178 586 346 754 80
80 158 130 254 164 58 20 81 22 191 19 71 -2 138 -9 155 -17z"/>
<path d="M28275 9148 c-135 -20 -282 -55 -360 -87 -77 -32 -222 -112 -282
-157 -232 -174 -382 -411 -438 -692 -25 -121 -17 -405 14 -517 89 -330 319
-557 802 -794 103 -50 189 -91 192 -91 3 0 58 -25 122 -55 65 -30 118 -55 120
-55 2 0 48 -25 102 -57 210 -120 316 -229 381 -388 33 -82 43 -287 18 -385
-52 -207 -201 -369 -386 -421 -62 -17 -253 -14 -332 6 -292 74 -554 353 -856
911 l-77 144 -70 -6 c-38 -4 -72 -9 -75 -13 -3 -3 -4 -248 -2 -544 l3 -538 46
-21 c122 -54 352 -121 533 -156 215 -41 457 -57 636 -42 121 10 149 15 264 42
228 53 452 178 615 342 213 215 325 475 341 791 9 190 -13 339 -72 488 -106
267 -315 459 -709 652 -148 72 -283 135 -290 135 -8 0 -253 121 -312 154 -155
86 -294 216 -353 328 -66 125 -80 304 -35 442 28 87 41 110 102 182 88 107
214 164 355 164 302 -2 504 -160 792 -624 46 -73 85 -137 87 -142 5 -11 81
-147 86 -153 3 -4 63 12 117 32 l29 11 -7 255 c-3 141 -9 360 -12 488 l-7 232
-26 9 c-275 101 -805 167 -1056 130z"/>
<path d="M22037 9023 c-4 -3 -7 -28 -7 -55 l0 -49 63 -28 c34 -16 109 -49 167
-74 58 -24 132 -57 165 -72 l61 -27 38 -101 c21 -56 71 -190 111 -297 40 -107
114 -305 165 -440 50 -135 96 -254 100 -265 5 -11 45 -119 90 -240 45 -121 85
-229 90 -240 5 -11 43 -112 85 -225 69 -187 92 -247 115 -305 5 -11 31 -83 60
-160 28 -77 58 -156 65 -175 8 -19 49 -127 91 -240 138 -371 256 -685 264
-705 45 -107 46 -120 9 -200 -10 -22 -38 -91 -64 -153 -49 -122 -126 -284
-176 -372 -93 -165 -242 -385 -260 -385 -5 0 -32 29 -60 65 -74 96 -176 197
-239 235 -154 93 -322 106 -470 36 -121 -57 -226 -201 -251 -345 -48 -277 121
-518 406 -581 98 -22 285 -17 365 10 275 94 507 355 734 827 117 245 195 436
331 813 86 239 126 349 160 440 18 50 45 124 60 165 15 41 42 116 60 165 18
50 47 131 65 180 18 50 36 99 40 110 5 11 20 52 33 90 29 80 94 258 142 390
18 50 45 124 60 165 15 41 33 91 40 110 7 19 26 69 40 110 15 41 45 125 67
185 69 188 105 287 131 360 14 39 48 131 75 205 28 74 80 218 117 320 139 385
135 377 164 391 14 8 42 23 61 35 19 11 76 42 125 69 50 26 95 51 100 55 11 8
67 41 128 73 36 20 37 22 37 79 l0 58 -637 -2 -638 -3 -3 -52 -3 -52 56 -35
c30 -20 57 -36 60 -36 2 0 46 -25 97 -56 51 -31 113 -68 138 -83 93 -53 85
-41 65 -107 -10 -33 -35 -113 -56 -179 -20 -66 -54 -174 -74 -240 -20 -66 -42
-138 -50 -160 -7 -22 -29 -92 -49 -155 -19 -63 -56 -182 -82 -265 -25 -82 -51
-166 -56 -185 -5 -19 -18 -60 -28 -90 -10 -30 -32 -102 -50 -160 -17 -58 -36
-116 -40 -130 -5 -14 -27 -86 -50 -160 -23 -74 -45 -146 -50 -160 -5 -14 -28
-86 -50 -160 -73 -235 -76 -245 -92 -248 -20 -4 -3 -51 -254 703 -114 341
-287 860 -386 1154 -98 294 -178 538 -178 543 0 9 68 42 160 78 30 12 71 28
90 36 19 9 76 32 125 52 l90 37 3 58 3 57 -904 0 c-497 0 -907 -3 -910 -7z"/>
<path d="M13880 2155 c-163 -45 -290 -137 -386 -281 -127 -191 -183 -404 -184
-694 0 -360 97 -630 293 -817 74 -70 168 -125 267 -154 68 -21 291 -18 355 5
100 35 180 82 248 146 193 180 296 464 297 815 1 512 -220 888 -576 981 -67
17 -250 17 -314 -1z m235 -155 c92 -24 123 -36 175 -68 199 -125 310 -393 310
-752 0 -468 -187 -774 -500 -820 -80 -12 -173 0 -250 33 -92 40 -192 135 -256
247 -68 117 -124 364 -124 541 0 63 26 266 41 324 66 250 199 419 374 473 113
34 163 39 230 22z"/>
<path d="M10049 2123 c-16 -42 -62 -181 -109 -333 -23 -74 -46 -144 -50 -155
-5 -11 -27 -81 -50 -155 -23 -74 -45 -146 -50 -160 -5 -14 -39 -119 -76 -235
-36 -116 -77 -241 -89 -280 -13 -38 -53 -164 -90 -280 -37 -116 -73 -228 -80
-250 -7 -22 -11 -43 -8 -47 2 -5 37 -8 77 -8 88 0 69 -33 166 280 23 74 54
173 69 220 l27 85 351 3 350 2 11 -27 c6 -16 30 -89 53 -163 89 -290 110 -356
119 -377 9 -21 16 -23 90 -23 94 0 94 0 56 113 -13 40 -43 133 -66 207 -23 74
-45 144 -50 155 -5 11 -28 81 -50 155 -57 185 -91 291 -100 315 -5 11 -27 81
-50 155 -23 74 -52 167 -65 205 -13 39 -53 165 -90 280 -37 116 -77 239 -88
275 l-22 65 -88 3 -87 3 -11 -28z m125 -305 c16 -51 39 -124 51 -163 13 -38
37 -117 54 -175 18 -58 36 -116 41 -130 5 -14 27 -86 50 -160 23 -74 46 -145
51 -158 21 -54 32 -52 -282 -52 l-291 0 6 33 c3 17 21 79 40 137 18 58 52 166
75 240 23 74 46 146 51 160 5 14 27 86 50 160 53 172 63 200 70 200 3 0 18
-42 34 -92z"/>
<path d="M17623 2023 c-23 -71 -61 -186 -83 -258 -23 -71 -50 -155 -60 -185
-10 -30 -42 -129 -70 -220 -29 -91 -62 -196 -75 -235 -13 -38 -49 -151 -80
-250 -31 -99 -79 -247 -105 -330 -90 -278 -100 -309 -100 -317 0 -5 35 -8 79
-8 90 0 79 -12 124 135 83 267 110 355 126 400 l17 50 351 3 352 2 21 -72 c12
-40 37 -120 55 -178 19 -58 48 -150 65 -205 17 -55 35 -107 39 -115 6 -11 30
-16 90 -18 92 -3 95 1 67 75 -8 21 -26 76 -41 123 -14 47 -43 139 -65 205 -21
66 -68 214 -105 330 -36 116 -75 235 -85 265 -10 30 -44 136 -75 235 -31 99
-65 205 -75 235 -10 30 -44 136 -75 235 -31 99 -60 190 -65 203 -9 20 -16 22
-98 22 l-88 0 -41 -127z m160 -206 c40 -130 106 -342 127 -407 10 -30 32 -102
50 -160 18 -58 43 -139 56 -180 13 -41 24 -78 24 -82 0 -9 -574 -11 -582 -2
-4 3 0 24 7 47 8 23 31 98 53 167 201 640 223 710 230 710 4 0 20 -42 35 -93z"/>
<path d="M24530 2078 c-12 -40 -35 -111 -50 -158 -15 -47 -51 -159 -80 -250
-29 -91 -63 -196 -75 -235 -13 -38 -53 -164 -90 -280 -36 -115 -74 -235 -84
-265 -11 -30 -45 -136 -76 -235 -31 -99 -74 -234 -96 -300 -21 -66 -35 -123
-30 -128 4 -4 39 -7 77 -5 83 4 73 -12 149 233 31 99 69 218 84 265 l28 85
350 3 351 2 22 -67 c11 -38 39 -126 62 -198 23 -72 55 -173 72 -225 l31 -95
83 -3 c73 -3 82 -1 82 15 0 10 -17 72 -39 138 -21 66 -62 194 -91 285 -28 91
-60 190 -70 220 -10 30 -51 156 -90 280 -39 124 -79 250 -89 280 -11 30 -30
91 -44 135 -72 231 -160 504 -172 535 l-13 35 -89 3 -90 3 -23 -73z m149 -278
c45 -148 130 -420 141 -450 5 -14 27 -86 50 -160 22 -74 45 -145 50 -158 23
-54 33 -52 -280 -52 -334 0 -305 -12 -266 110 13 41 39 122 56 180 18 58 52
166 76 240 23 74 62 197 85 272 24 76 46 135 50 130 3 -4 21 -54 38 -112z"/>
<path d="M305 2128 c-3 -7 -4 -438 -3 -958 l3 -945 80 0 80 0 0 955 0 955 -78
3 c-56 2 -79 -1 -82 -10z"/>
<path d="M1075 2128 c-3 -7 -4 -438 -3 -958 l3 -945 75 0 75 0 5 808 5 808
126 -208 c69 -114 223 -368 341 -563 118 -195 279 -461 358 -590 78 -129 147
-241 153 -248 7 -9 32 -12 81 -10 l71 3 0 955 0 955 -75 0 -75 0 -3 -770 c-1
-423 -6 -773 -11 -778 -4 -4 -51 63 -103 150 -52 87 -160 264 -238 393 -188
309 -500 824 -563 928 l-50 82 -84 0 c-58 0 -85 -4 -88 -12z"/>
<path d="M2747 2133 c-4 -3 -7 -42 -7 -85 l0 -78 278 -2 277 -3 5 -870 5 -870
74 -3 c53 -2 77 1 82 10 5 7 9 401 9 876 l0 862 280 0 281 0 -3 83 -3 82 -636
3 c-349 1 -639 -1 -642 -5z"/>
<path d="M4405 2128 c-3 -7 -4 -438 -3 -958 l3 -945 530 -3 c604 -3 555 -10
555 89 0 98 47 89 -466 89 l-454 0 0 375 0 375 323 2 322 3 0 80 0 80 -320 2
-320 2 -3 326 -2 325 435 0 436 0 -3 83 -3 82 -513 3 c-405 2 -514 0 -517 -10z"/>
<path d="M5945 2131 c-7 -6 -8 -333 -5 -958 l5 -948 75 0 75 0 5 425 5 425
213 3 213 2 212 -427 212 -428 84 -3 c46 -2 88 1 92 5 5 5 -86 199 -202 432
-116 233 -208 429 -205 436 2 7 22 15 43 19 68 11 143 54 207 119 102 101 146
215 146 377 -1 224 -86 378 -253 458 -124 60 -157 64 -552 69 -239 3 -363 1
-370 -6z m715 -175 c100 -18 161 -48 214 -106 61 -69 80 -134 74 -264 -4 -88
-9 -110 -35 -161 -35 -69 -85 -113 -170 -146 -56 -22 -70 -23 -348 -24 l-290
0 -3 345 c-1 190 0 351 3 357 6 18 453 17 555 -1z"/>
<path d="M7700 1180 l0 -961 78 3 77 3 5 805 5 805 49 -80 c27 -44 138 -226
246 -405 109 -179 262 -431 340 -560 79 -129 183 -302 233 -385 49 -82 96
-158 105 -168 13 -14 28 -17 81 -15 l66 3 0 955 0 955 -72 3 -73 3 0 -781 c0
-557 -3 -781 -11 -778 -10 3 -70 98 -284 453 -56 94 -165 274 -242 400 -77
127 -200 329 -273 450 -73 121 -140 228 -148 238 -12 14 -32 17 -99 17 l-83 0
0 -960z"/>
<path d="M10960 2055 l0 -85 278 -2 277 -3 5 -870 5 -870 78 -3 77 -3 0 860
c0 473 3 866 6 875 5 14 40 16 280 16 l275 0 -3 83 -3 82 -637 3 -638 2 0 -85z"/>
<path d="M12647 2133 c-10 -9 -8 -1886 2 -1901 5 -9 29 -12 82 -10 l74 3 3
958 2 957 -78 0 c-43 0 -82 -3 -85 -7z"/>
<path d="M15307 2134 c-10 -10 -8 -1886 2 -1902 5 -9 28 -12 77 -10 l69 3 5
810 5 810 109 -180 c60 -99 127 -209 148 -243 52 -84 335 -551 408 -672 186
-310 313 -516 323 -522 7 -4 42 -8 80 -8 l67 0 0 960 0 961 -77 -3 -78 -3 -3
-777 c-1 -428 -5 -778 -10 -778 -4 0 -28 35 -53 78 -43 74 -349 578 -604 997
-67 110 -160 263 -207 340 l-85 140 -84 3 c-47 1 -88 0 -92 -4z"/>
<path d="M18920 1180 l0 -960 499 0 c346 0 502 3 506 11 4 6 7 41 7 79 0 38
-3 73 -7 79 -4 8 -136 11 -421 11 l-414 0 -2 868 -3 867 -82 3 -83 3 0 -961z"/>
<path d="M20935 2128 c-3 -7 -4 -438 -3 -958 l3 -945 75 0 75 0 5 425 5 425
214 0 215 0 151 -305 c83 -168 178 -359 211 -425 l59 -120 93 -3 c50 -1 92 1
92 6 0 5 -95 199 -211 432 -115 232 -208 429 -205 436 3 8 18 14 32 14 51 0
170 68 227 129 99 107 137 211 137 370 0 273 -118 432 -374 504 -63 18 -110
21 -433 25 -298 3 -364 1 -368 -10z m715 -172 c179 -32 261 -112 289 -281 10
-57 9 -84 -3 -149 -26 -133 -80 -198 -205 -248 -53 -21 -69 -22 -346 -23
l-290 0 -3 345 c-1 190 0 351 3 357 6 18 453 17 555 -1z"/>
<path d="M22645 2128 c-3 -7 -4 -438 -3 -958 l3 -945 530 -3 c604 -3 555 -10
555 89 0 98 47 89 -466 89 l-454 0 0 375 0 375 323 2 322 3 0 80 0 80 -320 2
-320 2 -3 325 -2 326 432 2 433 3 0 80 0 80 -513 3 c-405 2 -514 0 -517 -10z"/>
<path d="M25775 2128 c-3 -7 -4 -438 -3 -958 l3 -945 503 -3 502 -2 0 90 0 90
-420 0 -420 0 -2 868 -3 867 -78 3 c-56 2 -79 -1 -82 -10z"/>
<path d="M26696 2132 c-2 -4 -6 -41 -7 -82 l-2 -75 275 -3 276 -2 6 -23 c3
-12 6 -398 6 -857 0 -459 0 -843 0 -853 0 -16 9 -18 78 -15 l77 3 5 870 5 870
278 3 277 2 0 85 0 85 -634 0 c-349 0 -637 -4 -640 -8z"/>
<path d="M28170 2129 c0 -6 13 -35 29 -63 16 -28 48 -87 71 -131 24 -44 63
-115 87 -157 23 -43 43 -79 43 -82 0 -2 29 -55 63 -117 71 -126 101 -183 206
-376 l71 -133 0 -412 c0 -227 4 -419 9 -426 5 -9 29 -12 82 -10 l74 3 5 425 5
425 39 70 c21 39 49 88 61 110 12 22 41 76 65 120 24 44 72 131 107 194 34 62
63 115 63 117 0 3 20 39 43 82 24 42 60 106 79 142 19 36 54 99 77 141 22 42
41 79 41 82 0 4 -38 7 -84 7 -97 0 -92 5 -161 -130 -36 -70 -59 -114 -140
-265 -18 -33 -61 -114 -95 -180 -35 -66 -66 -124 -70 -130 -4 -5 -29 -52 -55
-102 -25 -51 -50 -93 -54 -93 -4 0 -27 37 -51 83 -24 45 -90 169 -147 275 -57
106 -128 239 -158 295 -29 56 -71 134 -92 172 l-38 70 -88 3 c-61 2 -87 -1
-87 -9z"/>
</g>
</svg>
