<?xml version="1.0" encoding="UTF-8"?>
<svg version="1.1" xmlns="http://www.w3.org/2000/svg" width="3210" height="599">
<path d="M0 0 C0.33 45.21 0.66 90.42 1 137 C5.29 133.37 9.58 129.74 14 126 C33.62751564 112.506083 53.93350277 103.8667529 78.09423828 107.29736328 C86.66091137 108.89863073 93.38373896 112.43091697 100 118 C100.95132813 118.75023438 100.95132813 118.75023438 101.921875 119.515625 C111.346488 127.77258683 115.58162782 140.8958846 117 153 C117.55570081 161.7371187 117.48979197 170.50557432 117.50611091 179.2567935 C117.51559327 182.66675765 117.54180318 186.07659588 117.56611633 189.48648071 C117.60951719 195.92107031 117.63822528 202.35563511 117.66143972 208.79032576 C117.68863445 216.12553003 117.73253609 223.46060594 117.77772844 230.79571795 C117.87019566 245.86375574 117.93984416 260.93179206 118 276 C129.88 279.96 129.88 279.96 142 284 C142 286.31 142 288.62 142 291 C112.3 291 82.6 291 52 291 C52 288.69 52 286.38 52 284 C62.395 280.04 62.395 280.04 73 276 C73.06793175 262.25618699 73.12290612 248.51248654 73.15543652 234.76854324 C73.17105396 228.38583357 73.19222055 222.00324529 73.22631836 215.62060547 C73.25905166 209.45439215 73.27688247 203.28829519 73.28463173 197.12200165 C73.2901502 194.77622396 73.30092612 192.43045222 73.31719017 190.08472443 C74.02466059 167.34671603 74.02466059 167.34671603 64.5390625 147.3203125 C57.24580929 140.43794679 48.3479346 138.27907084 38.5625 138.4375 C37.14710938 138.44849731 37.14710938 138.44849731 35.703125 138.4597168 C23.84402642 138.78219061 12.54519524 141.58447052 2 147 C1.34 147 0.68 147 0 147 C0 189.9 0 232.8 0 277 C1.98 277.33 3.96 277.66 6 278 C7.37659228 278.42535857 8.74144716 278.89219686 10.0859375 279.41015625 C10.78847656 279.67763672 11.49101562 279.94511719 12.21484375 280.22070312 C12.92769531 280.49849609 13.64054687 280.77628906 14.375 281.0625 C15.11105469 281.34416016 15.84710937 281.62582031 16.60546875 281.91601562 C18.4055736 282.60566618 20.2030621 283.30213932 22 284 C22 286.31 22 288.62 22 291 C-7.7 291 -37.4 291 -68 291 C-68 288.69 -68 286.38 -68 284 C-56.12 280.04 -56.12 280.04 -44 276 C-43.67 198.12 -43.34 120.24 -43 40 C-44.65 39.34 -46.3 38.68 -48 38 C-49.70892988 36.96868538 -51.39049437 35.89110063 -53.046875 34.77734375 C-54.43712891 33.84631836 -54.43712891 33.84631836 -55.85546875 32.89648438 C-56.81066406 32.25001953 -57.76585938 31.60355469 -58.75 30.9375 C-59.72066406 30.28716797 -60.69132812 29.63683594 -61.69140625 28.96679688 C-68.83163979 24.16836021 -68.83163979 24.16836021 -70 23 C-70.04063832 21.33382885 -70.042721 19.66611905 -70 18 C-62.94674585 15.17804258 -55.74290211 13.16658489 -48.41796875 11.171875 C-47.11377047 10.81513264 -45.80959711 10.4582992 -44.50544739 10.10137939 C-41.78896638 9.35907973 -39.07163385 8.61999413 -36.35375977 7.8828125 C-32.87008659 6.93731422 -29.38963896 5.98046621 -25.90983105 5.02085495 C-23.22540636 4.28251491 -20.53895109 3.55179636 -17.85186195 2.8232193 C-15.94321027 2.30374494 -14.03667186 1.77652612 -12.13017273 1.24920654 C-10.97499649 0.93848206 -9.81982025 0.62775757 -8.62963867 0.30761719 C-7.61230148 0.03020691 -6.59496429 -0.24720337 -5.54679871 -0.53302002 C-3 -1 -3 -1 0 0 Z " fill="#002349" transform="translate(2273,6)"/>
<path d="M0 0 C0 43.56 0 87.12 0 132 C2.64 129.69 5.28 127.38 8 125 C25.26990737 111.41186736 45.19321855 105.32431139 67 107 C85.26699924 109.58614285 101.00225835 120.45832759 112 135 C124.35753518 153.4268314 129.61075453 174.26204975 129.4375 196.3125 C129.43479095 196.98399078 129.43208191 197.65548157 129.42929077 198.34732056 C129.28427987 222.14286821 122.44175612 243.56512815 107 262 C106.45601562 262.67804688 105.91203125 263.35609375 105.3515625 264.0546875 C89.29264278 283.43094275 63.66548762 294.476034 39 297 C11.64845464 298.68371043 -15.61974262 295.35746165 -42 288 C-43 287 -43 287 -43.08838558 283.05018806 C-43.07638811 281.22564827 -43.05878077 279.40114102 -43.03709412 277.57669067 C-43.02933191 276.57496004 -43.0215697 275.57322941 -43.01357228 274.5411433 C-42.99597975 272.3331135 -42.97611452 270.12510098 -42.95433235 267.91710854 C-42.89409557 261.78142054 -42.85068197 255.64559996 -42.80406189 249.50979614 C-42.79359829 248.19840833 -42.78313469 246.88702052 -42.77235401 245.53589368 C-42.69665161 235.93323013 -42.64865378 226.33065798 -42.61720276 216.72775269 C-42.61490006 216.03364737 -42.61259737 215.33954206 -42.6102249 214.62440325 C-42.58908021 208.1754297 -42.56993774 201.72645106 -42.55264366 195.27746606 C-42.54072527 190.8513153 -42.52782391 186.4251684 -42.51391602 181.99902344 C-42.51161954 181.26379251 -42.50932307 180.52856157 -42.506957 179.77105092 C-42.4679825 167.87630101 -42.36840803 155.98277193 -42.24719059 144.08860947 C-42.12417115 131.87407893 -42.06988618 119.66059569 -42.07804447 107.44544303 C-42.08085762 99.91293166 -42.0301319 92.38472356 -41.90995253 84.85315375 C-41.82335298 79.07018947 -41.83220133 73.2903499 -41.87595367 67.50704765 C-41.8790171 65.14103806 -41.85140907 62.77475319 -41.79038429 60.40952873 C-41.08521422 48.45166675 -41.08521422 48.45166675 -45.7771275 37.97944021 C-50.08069361 34.4646674 -54.79500873 32.07849111 -59.89044297 29.9198072 C-62.62542483 28.72730282 -65.10877231 27.22137385 -67.625 25.625 C-68.63433594 25.02558594 -68.63433594 25.02558594 -69.6640625 24.4140625 C-71 23 -71 23 -71.08349609 20.41162109 C-71.05594238 19.61578613 -71.02838867 18.81995117 -71 18 C-58.03070292 13.76810908 -44.90969468 10.14089383 -31.7409668 6.58642578 C-28.14725889 5.61411237 -24.55708338 4.62939301 -20.96679688 3.64453125 C-18.67989327 3.02528124 -16.39279111 2.40676393 -14.10546875 1.7890625 C-13.03370895 1.49335358 -11.96194916 1.19764465 -10.85771179 0.89297485 C-9.37389763 0.49663345 -9.37389763 0.49663345 -7.86010742 0.09228516 C-6.99125412 -0.14356293 -6.12240082 -0.37941101 -5.22721863 -0.62240601 C-3 -1 -3 -1 0 0 Z M4.24829102 139.55932617 C3.04983299 139.9641346 3.04983299 139.9641346 1.8271637 140.37712097 C0.92271767 140.68544609 0.92271767 140.68544609 0 141 C-0.23399564 157.01190891 -0.41013254 173.02326015 -0.51812172 189.03646755 C-0.56960482 196.47240417 -0.63974169 203.90727622 -0.75439453 211.3425293 C-0.85432376 217.82606603 -0.91864114 224.30883164 -0.94088495 230.79311711 C-0.95388157 234.22442806 -0.9842342 237.65353386 -1.05730057 241.08413506 C-1.13008283 244.92256377 -1.13988405 248.75644949 -1.13525391 252.59545898 C-1.17120667 253.72259308 -1.20715942 254.84972717 -1.24420166 256.01101685 C-1.18085692 260.87582363 -0.94184013 263.83801152 2.18309402 267.69337654 C13.57957391 278.13603465 28.64071855 283.76615242 44.1171875 283.28125 C55.30188211 282.19006028 63.24064127 276.91344854 70.33984375 268.375 C85.77069952 246.29979928 87.00825324 212.32488948 83.12670898 186.52172852 C80.19046702 170.27629907 74.34615245 154.51009505 61 144 C43.58053906 132.71694007 23.31813098 133.09239176 4.24829102 139.55932617 Z " fill="#002349" transform="translate(2675,6)"/>
<path d="M0 0 C17.51091438 -0.49907191 33.67341315 4.18631201 49.15234375 12.16015625 C50.07015625 11.29390625 50.98796875 10.42765625 51.93359375 9.53515625 C53.17223483 8.4091189 54.41187149 7.28417601 55.65234375 6.16015625 C56.25304688 5.5878125 56.85375 5.01546875 57.47265625 4.42578125 C60.77806506 1.47201167 63.02389737 -0.22066005 67.55859375 -0.27734375 C71.15234375 0.16015625 71.15234375 0.16015625 72.15234375 1.16015625 C72.42457363 3.26104912 72.63300578 5.37023081 72.81665039 7.48071289 C72.87531784 8.14100494 72.93398529 8.801297 72.99443054 9.4815979 C73.18829922 11.67746685 73.37554472 13.87384493 73.5625 16.0703125 C73.69529589 17.5967411 73.82839222 19.1231436 73.96177673 20.64952087 C74.24115364 23.85814667 74.51734991 27.06702604 74.79125977 30.27612305 C75.14113383 34.37305826 75.49802141 38.46934419 75.85724735 42.56546879 C76.13351545 45.72326079 76.40637056 48.8813406 76.67819023 52.03951836 C76.80840461 53.54855009 76.9395709 55.05750002 77.07173347 56.56636238 C78.33984852 71.09059564 78.33984852 71.09059564 78.15234375 78.16015625 C73.69734375 78.65515625 73.69734375 78.65515625 69.15234375 79.16015625 C68.52328125 78 67.89421875 76.83984375 67.24609375 75.64453125 C60.1478066 62.64727463 52.62732286 50.59409729 43.15234375 39.16015625 C42.45238281 38.23976563 42.45238281 38.23976563 41.73828125 37.30078125 C33.55007747 26.86201854 20.98328962 19.23423703 8.15234375 16.16015625 C-3.73173307 14.78538431 -14.55746053 15.87395192 -24.4765625 23.06640625 C-26.74256138 25.06735419 -28.31705128 26.89508421 -29.97265625 29.41015625 C-30.68808594 30.46976563 -30.68808594 30.46976563 -31.41796875 31.55078125 C-35.04185609 38.16487072 -36.37973676 43.94053911 -36.28515625 51.47265625 C-36.2790332 52.30498779 -36.27291016 53.13731934 -36.26660156 53.99487305 C-35.98990686 64.9317634 -32.27658756 73.44296816 -24.91015625 81.53515625 C-12.4970087 93.30712882 4.62095389 98.71341247 20.15234375 105.16015625 C56.20659728 120.16020038 56.20659728 120.16020038 68.15234375 131.16015625 C69.44591797 132.33384766 69.44591797 132.33384766 70.765625 133.53125 C80.95750057 143.20975702 88.42576249 155.63306988 89.3293457 169.96826172 C89.81070735 193.99798846 86.97138011 215.70448488 70.15234375 234.16015625 C69.43691406 234.96710938 68.72148438 235.7740625 67.984375 236.60546875 C52.66361065 252.9509498 30.16475247 262.59759103 7.796875 263.36328125 C-14.91173376 263.73300557 -36.13606811 259.53823566 -56.84765625 250.16015625 C-57.35554688 250.67964844 -57.8634375 251.19914063 -58.38671875 251.734375 C-60.52095174 253.89658483 -62.68370591 256.02773888 -64.84765625 258.16015625 C-65.35941406 258.70285156 -65.87117188 259.24554688 -66.3984375 259.8046875 C-68.49059455 261.84969735 -70.16770692 263.10159672 -73.11547852 263.35546875 C-74.31515259 263.32066406 -74.31515259 263.32066406 -75.5390625 263.28515625 C-76.34674072 263.26710938 -77.15441895 263.2490625 -77.98657227 263.23046875 C-78.90780884 263.19566406 -78.90780884 263.19566406 -79.84765625 263.16015625 C-80.37375031 253.75379331 -80.89560744 244.34720714 -81.41226196 234.94032097 C-81.65237074 230.57093822 -81.89386279 226.20164165 -82.13867188 221.83251953 C-82.3754839 217.60516404 -82.60845898 213.37761202 -82.83892822 209.14990616 C-82.92689274 207.54815449 -83.01617063 205.94647432 -83.10687256 204.34487534 C-83.65764749 194.60118213 -83.97047139 184.92310706 -83.84765625 175.16015625 C-80.87765625 174.83015625 -77.90765625 174.50015625 -74.84765625 174.16015625 C-74.38617187 175.11792969 -73.9246875 176.07570312 -73.44921875 177.0625 C-66.21072323 191.91282319 -58.37565881 206.35725866 -47.84765625 219.16015625 C-47.43435059 219.66385742 -47.02104492 220.16755859 -46.59521484 220.68652344 C-34.87908621 234.75997769 -19.41246929 245.66284635 -0.76953125 247.6796875 C11.89572748 248.69710994 22.30565031 247.26429225 33.15234375 240.16015625 C34.03921875 239.58265625 34.92609375 239.00515625 35.83984375 238.41015625 C44.33956594 230.14015628 48.9824874 218.78587374 49.33984375 207.03515625 C49.15606208 194.92598633 46.52510616 185.06240227 38.23828125 176.09375 C25.4545191 164.2436334 6.64970844 157.93551166 -9.34765625 151.66015625 C-18.56933018 148.04273035 -27.7150864 144.38312595 -36.59375 139.9765625 C-37.23054688 139.66227295 -37.86734375 139.3479834 -38.5234375 139.02416992 C-56.53046337 129.8708182 -69.1326686 115.18020143 -75.5625 96.03125 C-80.80791529 75.8536306 -77.13027603 54.4375233 -67.01171875 36.4609375 C-54.98291102 18.11374881 -35.77470823 6.30857288 -14.50390625 1.6484375 C-9.64841468 0.7558839 -4.92663948 0.27708123 0 0 Z " fill="#002349" transform="translate(1741.84765625,39.83984375)"/>
<path d="M0 0 C18.59189409 15.89050777 28.18811892 39.99830376 30.4375 63.9375 C32.05093186 89.91648755 27.82459836 116.98971509 11.1015625 137.8515625 C8.94147323 140.28435407 6.72875743 142.62858356 4.4375 144.9375 C3.57125 145.845 2.705 146.7525 1.8125 147.6875 C1.02875 148.43 0.245 149.1725 -0.5625 149.9375 C-1.01238281 150.38222656 -1.46226562 150.82695312 -1.92578125 151.28515625 C-20.70369268 168.75839889 -46.07498352 172.77803615 -70.70703125 172.2890625 C-91.98902293 171.47514123 -114.20370979 163.29586402 -128.95898438 147.43652344 C-146.13032611 127.86400499 -153.01179576 104.00794987 -152.9375 78.3125 C-152.93695618 77.60473419 -152.93641235 76.89696838 -152.93585205 76.16775513 C-152.89733837 65.26545732 -152.18518611 55.31206549 -148.5625 44.9375 C-148.34287598 44.29087402 -148.12325195 43.64424805 -147.89697266 42.97802734 C-139.69003417 19.21682044 -123.04823295 0.97102504 -100.5625 -10.0625 C-95.96846949 -12.04687314 -91.36368957 -13.65571415 -86.5625 -15.0625 C-85.47324219 -15.3821875 -84.38398437 -15.701875 -83.26171875 -16.03125 C-55.05761044 -22.93055622 -23.15285134 -17.76242592 0 0 Z M-88.5625 6.9375 C-108.28669565 32.22591427 -108.28445273 72.32956137 -104.79272461 102.90771484 C-102.35482152 120.26960616 -96.82919334 141.27490916 -82.46484375 152.58984375 C-72.42654478 159.63214954 -63.27831249 161.56658638 -50.9765625 159.50390625 C-40.62711129 156.58064021 -33.44933475 148.65422321 -28.2265625 139.62890625 C-18.15734597 120.55842039 -16.33089174 98.89473291 -16.3125 77.6875 C-16.31182526 76.98496094 -16.31115051 76.28242188 -16.31045532 75.55859375 C-16.34833265 50.59212637 -18.92392053 22.18250484 -36.98828125 3.13671875 C-45.4018644 -4.05121344 -54.39301462 -6.47280316 -65.18359375 -6.328125 C-75.14044081 -5.5453902 -81.97302303 -0.28430052 -88.5625 6.9375 Z " fill="#002349" transform="translate(2014.5625,131.0625)"/>
<path d="M0 0 C32.01 0 64.02 0 97 0 C97 1.98 97 3.96 97 6 C93.00362208 7.67545741 89.00268172 9.33966317 85 11 C84.03707031 11.40347656 83.07414062 11.80695313 82.08203125 12.22265625 C81.20933594 12.58230469 80.33664063 12.94195312 79.4375 13.3125 C78.65246094 13.63863281 77.86742188 13.96476563 77.05859375 14.30078125 C75 15 75 15 72 15 C72.23895996 15.62189209 72.47791992 16.24378418 72.72412109 16.88452148 C80.06017688 36.01664091 87.15079626 55.23552528 94.20214844 74.47412109 C98.98195463 87.51400391 103.78327775 100.54547294 108.625 113.5625 C108.90502869 114.31541321 109.18505737 115.06832642 109.47357178 115.84405518 C110.98109579 119.89651614 112.48987918 123.94850586 114 128 C115.66851114 125.49723329 116.52624345 123.80176657 117.45776367 121.02734375 C117.73007813 120.2238147 118.00239258 119.42028564 118.28295898 118.59240723 C118.57501221 117.71628784 118.86706543 116.84016846 119.16796875 115.9375 C119.47976074 115.0146521 119.79155273 114.0918042 120.11279297 113.14099121 C120.78799612 111.14156852 121.46129134 109.14150073 122.13290405 107.14086914 C123.92299516 101.80949845 125.72733742 96.48295691 127.53125 91.15625 C127.90066208 90.06453491 128.27007416 88.97281982 128.65068054 87.84802246 C133.02422981 74.94319611 137.52625599 62.08363977 142.0378418 49.2265625 C144.7013695 41.63142989 147.35508123 34.03339652 149.92578125 26.40625 C150.52966675 24.61670898 150.52966675 24.61670898 151.14575195 22.79101562 C152.09755634 20.167732 152.09755634 20.167732 152 18 C145.07 14.37 138.14 10.74 131 7 C131 4.69 131 2.38 131 0 C153.44 0 175.88 0 199 0 C199 2.31 199 4.62 199 7 C198.29391602 7.32162109 197.58783203 7.64324219 196.86035156 7.97460938 C193.64429252 9.45731729 190.44764388 10.97800932 187.25 12.5 C186.13882813 13.0053125 185.02765625 13.510625 183.8828125 14.03125 C182.27792969 14.8046875 182.27792969 14.8046875 180.640625 15.59375 C179.65610352 16.05458984 178.67158203 16.51542969 177.65722656 16.99023438 C174.05233231 19.71675858 172.68149619 22.93274013 171 27 C170.62193207 27.90109497 170.24386414 28.80218994 169.8543396 29.73059082 C168.52312505 32.96640241 167.22926605 36.21544447 165.94140625 39.46875 C165.44416743 40.71710331 164.94658345 41.96531918 164.44868469 43.21340942 C163.37851906 45.89765197 162.31038514 48.58269027 161.24383545 51.26837158 C158.64431627 57.81340266 156.0330605 64.35375593 153.42328644 70.89470291 C152.50300408 73.20153216 151.58311458 75.50851778 150.66326904 77.81552124 C139.6971568 105.31294241 128.62099089 132.76636483 117.52972412 160.21350098 C116.11828423 163.70658691 114.70871696 167.20042663 113.29931641 170.69433594 C111.42626055 175.33539641 109.54651655 179.9736745 107.65948486 184.60906982 C107.03083806 186.15544227 106.40419526 187.70263158 105.77996826 189.25079346 C97.96738503 208.61207699 89.02428513 228.34379806 75 244 C74.41476563 244.66773438 73.82953125 245.33546875 73.2265625 246.0234375 C65.02680212 254.83914232 55.10716588 259.1656915 43.22265625 259.9609375 C33.64657145 260.07701126 24.68496344 258.15778638 17.44140625 251.5859375 C12.38945911 245.97932554 10.37876775 239.96818211 10.66015625 232.55078125 C11.66976782 224.97289211 15.15974436 220.07496444 21.05859375 215.37109375 C27.229961 211.01264324 34.13559832 210.55146746 41.4375 211.5625 C50.78557857 213.52237302 56.73808805 219.39089694 63.15234375 226.14453125 C64.87262208 228.06890625 64.87262208 228.06890625 67 229 C67.25007813 228.44957031 67.50015625 227.89914062 67.7578125 227.33203125 C69.22836242 224.57128188 71.0154654 222.20434262 72.875 219.6875 C79.68531547 210.17105162 84.94918818 199.53214372 90 189 C90.6034021 187.76056641 90.6034021 187.76056641 91.21899414 186.49609375 C92.85005717 181.28321835 90.16612276 176.58286041 88.18359375 171.75390625 C87.89599686 171.04403564 87.60839996 170.33416504 87.31208801 169.6027832 C86.3586327 167.25406182 85.39832258 164.90821628 84.4375 162.5625 C83.75802997 160.89514494 83.07866999 159.22774503 82.39941406 157.56030273 C77.11742537 144.62084126 71.7073077 131.73663612 66.26318359 118.86474609 C60.1532451 104.41138405 54.15660816 89.91226551 48.17944336 75.40356445 C47.3852897 73.47605947 46.59110024 71.54856924 45.796875 69.62109375 C45.40399796 68.66755508 45.01112091 67.71401642 44.6063385 66.73158264 C41.75881988 59.82604527 38.8913113 52.92900544 36.015625 46.03515625 C35.21667268 44.11761224 34.41776237 42.20005072 33.61889648 40.2824707 C32.47397658 37.53440464 31.32792786 34.78684135 30.17800903 32.04086304 C29.13252916 29.54413535 28.09123534 27.0457003 27.05078125 24.546875 C26.73929138 23.80651505 26.42780151 23.06615509 26.10687256 22.30335999 C24 17.22747461 24 17.22747461 24 15 C23.19175781 14.9071875 22.38351563 14.814375 21.55078125 14.71875 C17.15907777 13.82978032 13.29931274 12.24568009 9.1875 10.5 C8.41212891 10.17902344 7.63675781 9.85804688 6.83789062 9.52734375 C1.14773261 7.14773261 1.14773261 7.14773261 0 6 C0 4.02 0 2.04 0 0 Z " fill="#002349" transform="translate(2807,119)"/>
<path d="M0 0 C0.75925781 0.57234375 1.51851562 1.1446875 2.30078125 1.734375 C17.16985639 13.75290205 24.28812284 33.18595083 26.6875 51.625 C27.05271655 56.73803164 27 61.8739415 27 67 C-13.26 67 -53.52 67 -95 67 C-93.06318316 104.47317075 -93.06318316 104.47317075 -74 136 C-58.82768459 148.34553422 -40.03143488 148.25108653 -21.40966797 146.79785156 C-8.19084712 145.3232199 5.60166445 141.81217627 17.91796875 136.81640625 C20 136 20 136 23 136 C23.66 137.98 24.32 139.96 25 142 C-2.01561654 164.64713387 -29.36817847 176.61253499 -65 175 C-83.30017501 173.3497724 -100.30164497 164.953642 -114 153 C-114.61488281 152.48050781 -115.22976562 151.96101562 -115.86328125 151.42578125 C-131.95699819 136.73795223 -139.98567849 112.96123612 -141.12426758 91.67700195 C-142.00788843 64.17532883 -135.99673328 36.85330756 -117 16 C-116.12730469 15.03449219 -115.25460938 14.06898438 -114.35546875 13.07421875 C-85.89650149 -17.3769248 -34.23013506 -27.29236899 0 0 Z M-78.58203125 8.671875 C-89.47960819 22.12851354 -94.11651183 38.98175874 -95 56 C-84.96482231 56.08410066 -74.99739019 55.85818508 -64.97265625 55.34375 C-63.60405532 55.27616826 -62.23543818 55.20891426 -60.86680603 55.14196777 C-57.32076578 54.96765661 -53.77495876 54.78899324 -50.22918701 54.60931396 C-46.58847258 54.42563218 -42.94754792 54.24621719 -39.30664062 54.06640625 C-32.20421987 53.71503214 -25.10203751 53.35904395 -18 53 C-18.14718219 50.60501614 -18.29772969 48.21032236 -18.45019531 45.81567383 C-18.49121368 45.14256416 -18.53223206 44.4694545 -18.57449341 43.77594757 C-18.90612854 38.62804806 -19.56866115 33.70309059 -20.75 28.6875 C-20.9255542 27.92969238 -21.1011084 27.17188477 -21.28198242 26.39111328 C-23.72080439 16.43303496 -28.13618535 6.36098721 -37.12109375 0.65234375 C-51.77986686 -6.85187221 -67.44670317 -3.09582973 -78.58203125 8.671875 Z " fill="#002349" transform="translate(2568,128)"/>
<path d="M0 0 C0.7213011 16.01058231 1.14453125 31.97308977 1 48 C-1.64 48.66 -4.28 49.32 -7 50 C-7.97967076 48.60452042 -8.9586886 47.20858248 -9.9375 45.8125 C-10.58074219 44.89855469 -11.22398437 43.98460937 -11.88671875 43.04296875 C-13.30690441 40.99800641 -14.70514854 38.93764676 -16.08203125 36.86328125 C-24.3585247 24.50073518 -33.94718177 11.07718414 -49 7 C-61.76093055 5.85291369 -61.76093055 5.85291369 -73 11 C-78.9876402 16.61714749 -81.95370037 21.52694061 -82.375 29.8125 C-82.21870653 36.74151065 -79.48364589 43.3571046 -74.74609375 48.48828125 C-63.99279472 57.79818444 -49.9199717 62.56082684 -37 68 C-19.12923259 75.57235907 1.03164287 84.21010015 8.9921875 103.390625 C14.31371511 118.69635204 13.07426381 134.49827401 6.375 149.125 C-1.92051272 164.79430181 -16.35158535 174.36588256 -32.625 180.328125 C-57.48188543 187.94586738 -93.48098696 184.75950652 -117 173 C-118.03886179 155.3207984 -118.11251944 137.7019046 -118 120 C-113.545 119.505 -113.545 119.505 -109 119 C-108.65855957 119.53778076 -108.31711914 120.07556152 -107.96533203 120.62963867 C-89.68345666 151.31430643 -89.68345666 151.31430643 -60 169 C-49.28417471 170.76392186 -40.9546503 170.12159472 -32.01171875 163.70703125 C-26.4060104 158.9503428 -23.45685665 153.23389245 -22.6640625 145.88671875 C-22.55385875 136.86103169 -23.78801832 130.29498569 -29.875 123.4375 C-39.61804577 114.58570998 -52.34751617 110.04730715 -64.30834961 105.07177734 C-83.71931809 96.9853931 -103.14902123 88.50436667 -112.95703125 68.6875 C-117.69183364 56.48696051 -117.73806254 42.25775142 -113.32421875 29.9609375 C-106.07370298 13.74886978 -93.53443389 3.38865434 -77.11328125 -2.93359375 C-55.30854624 -10.40246785 -21.17540802 -10.58770401 0 0 Z " fill="#002349" transform="translate(3194,120)"/>
<path d="M0 0 C2.64 0 5.28 0 8 0 C8 16.83 8 33.66 8 51 C27.8 51 47.6 51 68 51 C68 57.93 68 64.86 68 72 C48.2 72 28.4 72 8 72 C8.0908763 91.63780485 8.0908763 91.63780485 8.20898438 111.27539062 C8.2632242 119.28978108 8.3143378 127.30408989 8.34643555 135.31860352 C8.37252662 141.78318279 8.41297058 148.24753026 8.46318626 154.71196556 C8.47981566 157.17295629 8.4913543 159.63398707 8.49761391 162.09502602 C8.50729752 165.55358561 8.53540873 169.01155736 8.56762695 172.4699707 C8.56619186 173.47770538 8.56475677 174.48544006 8.5632782 175.52371216 C8.67713096 184.21835962 9.77720285 194.47365177 16 201 C29.24167916 210.08313529 44.81932265 209.23894299 60.19042969 209.01513672 C61.18848633 209.00111816 62.18654297 208.98709961 63.21484375 208.97265625 C64.11323975 208.95468994 65.01163574 208.93672363 65.93725586 208.91821289 C68 209 68 209 69 210 C69.04063832 211.66617115 69.042721 213.33388095 69 215 C45.43629974 228.69335974 16.20228674 237.46973306 -11 231 C-19.15918816 228.36473426 -25.42119999 224.0633245 -29.8125 216.625 C-35.22065644 206.02146704 -35.15102443 194.3458317 -35.11352539 182.68725586 C-35.11367142 181.48625244 -35.11381744 180.28524902 -35.1139679 179.04785156 C-35.11339402 175.78194227 -35.10840743 172.51607682 -35.10139394 169.25017619 C-35.09510744 165.82690674 -35.09455243 162.40363627 -35.09336853 158.98036194 C-35.09027075 152.51015626 -35.08207844 146.03996764 -35.07201904 139.56976944 C-35.06080949 132.19848207 -35.05533529 124.82719385 -35.05032361 117.45590007 C-35.03989441 102.30392234 -35.0215684 87.15196674 -35 72 C-44.57 72 -54.14 72 -64 72 C-64 65 -64 65 -61.5 62.3671875 C-60.34915325 61.5146772 -59.18104353 60.68515939 -58 59.875 C-56.71719759 58.93571023 -55.43601273 57.99420833 -54.15625 57.05078125 C-53.47949219 56.5604541 -52.80273438 56.07012695 -52.10546875 55.56494141 C-48.4660698 52.85986867 -44.99362192 49.95177113 -41.5 47.0625 C-34.66293459 41.41019078 -34.66293459 41.41019078 -30.875 39.06640625 C-27.25104729 36.46169024 -25.06088496 33.48753503 -22.5 29.875 C-21.46267723 28.45055437 -20.42353676 27.02743109 -19.3828125 25.60546875 C-18.83915039 24.85958496 -18.29548828 24.11370117 -17.73535156 23.34521484 C-14.10456995 18.43844949 -10.31053759 13.65649819 -6.54492188 8.85302734 C-5.69897461 7.77142334 -5.69897461 7.77142334 -4.8359375 6.66796875 C-4.08642822 5.71313599 -4.08642822 5.71313599 -3.32177734 4.73901367 C-2.15444687 3.20320005 -1.07006598 1.60509897 0 0 Z " fill="#002349" transform="translate(2123,69)"/>
<path d="M0 0 C108.24471831 0 108.24471831 0 126.75 17.25 C137.61725582 29.0122063 140.99944629 43.86576759 140.3828125 59.49609375 C139.61724137 70.66428394 136.66743774 80.88258514 130 90 C129.2575 91.051875 128.515 92.10375 127.75 93.1875 C119.16353059 101.96911645 107.90042628 107.27281898 96 110 C94.68 110 93.36 110 92 110 C98.27306138 121.62544221 104.54903659 133.24797484 110.98242188 144.78564453 C117.69912508 156.83259992 124.35081006 168.91568321 131 181 C131.62422852 182.134375 132.24845703 183.26875 132.89160156 184.4375 C134.59714704 187.54017071 136.29934943 190.64464414 138 193.75 C138.51030762 194.67844727 139.02061523 195.60689453 139.54638672 196.56347656 C140.0054541 197.40362305 140.46452148 198.24376953 140.9375 199.109375 C141.33839844 199.84124023 141.73929688 200.57310547 142.15234375 201.32714844 C143 203 143 203 143 204 C135.08 204 127.16 204 119 204 C117.92363281 201.95683594 116.84726562 199.91367187 115.73828125 197.80859375 C108.6549492 184.38900586 101.53023263 171.01512125 93.98046875 157.8503418 C88.27775991 147.84654302 82.92269028 137.65872061 77.55859375 127.47070312 C77.2040361 126.79835632 76.84947845 126.12600952 76.48417664 125.43328857 C75.81675085 124.16690974 75.15082259 122.89974012 74.48664856 121.63165283 C73.09361869 118.98735425 71.66053709 116.49080563 70 114 C67.785022 113.52401274 67.785022 113.52401274 65.18310547 113.56762695 C64.16821045 113.54768677 63.15331543 113.52774658 62.10766602 113.50720215 C61.03830811 113.50095825 59.9689502 113.49471436 58.8671875 113.48828125 C57.8862915 113.47164429 56.90539551 113.45500732 55.89477539 113.43786621 C52.22173626 113.37992156 48.54832676 113.34777873 44.875 113.3125 C32.561875 113.1578125 32.561875 113.1578125 20 113 C20 143.03 20 173.06 20 204 C13.4 204 6.8 204 0 204 C0 136.68 0 69.36 0 0 Z M20 19 C20 43.75 20 68.5 20 94 C35.0975 94.12375 35.0975 94.12375 50.5 94.25 C53.64337891 94.28641602 56.78675781 94.32283203 60.02539062 94.36035156 C87.20209516 94.75245605 87.20209516 94.75245605 110.796875 82.4453125 C118.62782245 74.34299558 119.62946625 64.18723651 119.54077148 53.42626953 C119.20785512 44.39240085 116.94311591 36.89043716 110.8125 30.0625 C98.900391 19.55632661 83.03994411 18.52613805 67.8515625 18.70703125 C66.01501099 18.71156311 66.01501099 18.71156311 64.14135742 18.71618652 C59.63581727 18.73169781 55.13039875 18.7735792 50.625 18.8125 C40.51875 18.874375 30.4125 18.93625 20 19 Z " fill="#002349" transform="translate(255,336)"/>
<path d="M0 0 C101.95287958 0 101.95287958 0 129.3359375 26.23828125 C146.22979814 43.85286973 153.28794513 69.03780575 154 93 C154.03996094 94.26585938 154.07992187 95.53171875 154.12109375 96.8359375 C154.73420164 126.50896612 149.0580197 156.45241266 128.2421875 178.84765625 C117.72671722 188.94177493 105.30540671 195.64099352 91.4375 199.8125 C90.46647339 200.10495605 90.46647339 200.10495605 89.47583008 200.40332031 C60.91046128 208.39274644 27.71302448 204 0 204 C0 136.68 0 69.36 0 0 Z M21 19 C21 74.11 21 129.22 21 186 C71.52914344 187.76900664 71.52914344 187.76900664 113.68359375 165.46875 C132.48113128 145.43494946 133.69229887 117.24163857 133.140625 91.37158203 C132.28781619 70.9248986 125.21045474 50.16145786 110 36 C84.74180806 15.08114087 52.07389629 19 21 19 Z " fill="#002349" transform="translate(4,4)"/>
<path d="M0 0 C6.1696217 5.28824718 10.3184979 10.8434353 13.625 18.25 C14.18445313 17.693125 14.74390625 17.13625 15.3203125 16.5625 C30.64431512 1.97759719 50.13976971 -6.16366899 71.30004883 -6.05053711 C82.16276611 -5.78171168 92.56209119 -2.81290881 100.44140625 5.06640625 C106.43693916 12.50447339 109.75558535 21.71971843 109.74525452 31.25508118 C109.74731651 32.72945396 109.74731651 32.72945396 109.74942017 34.23361206 C109.74582489 35.30032135 109.74222961 36.36703064 109.73852539 37.46606445 C109.73867142 38.59820877 109.73881744 39.73035309 109.7389679 40.89680481 C109.73827172 44.63564984 109.73049306 48.37444493 109.72265625 52.11328125 C109.72079102 54.70688347 109.71936761 57.30048605 109.71836853 59.89408875 C109.71494164 66.02089402 109.70706162 72.14767871 109.69701904 78.27447623 C109.68583173 85.25148234 109.68034086 92.22848931 109.67532361 99.20550215 C109.6648783 113.55367797 109.64709313 127.90183771 109.625 142.25 C103.025 142.25 96.425 142.25 89.625 142.25 C89.61953156 140.17859238 89.61953156 140.17859238 89.61395264 138.06533813 C89.57695726 125.02980786 89.51913445 111.99451282 89.44109726 98.95916176 C89.4013829 92.25808239 89.36944537 85.55714138 89.35400391 78.85595703 C89.33882272 72.38485019 89.3043501 65.91410347 89.25669098 59.4431572 C89.24189246 56.97855134 89.23395987 54.51389407 89.23311615 52.04924393 C89.23074027 48.58794335 89.20360832 45.12763294 89.17089844 41.66650391 C89.1759288 40.65517395 89.18095917 39.64384399 89.18614197 38.60186768 C89.07917401 31.25069491 87.86411581 24.08050414 82.98015976 18.30484962 C77.34708306 12.84832908 70.9620447 12.16475383 63.4375 11.875 C46.9730117 12.17954545 33.55462451 20.56536746 21.625 31.25 C20.76187698 31.90892746 19.89875397 32.56785492 19.00947571 33.24674988 C15.56784727 37.58148518 15.91780459 41.15819007 15.96557617 46.5480957 C15.95509247 47.58270432 15.94460876 48.61731293 15.93380737 49.68327332 C15.90504162 53.09774711 15.91135107 56.5112079 15.91796875 59.92578125 C15.90485473 62.29519421 15.88955142 64.66459599 15.87214661 67.03398132 C15.83224971 73.26634605 15.82210306 79.49841863 15.81811523 85.730896 C15.80879275 92.09217213 15.77138468 98.45327597 15.73632812 104.81445312 C15.67170407 117.29300117 15.64109911 129.77129489 15.625 142.25 C9.025 142.25 2.425 142.25 -4.375 142.25 C-4.38958252 139.07149414 -4.40416504 135.89298828 -4.41918945 132.61816406 C-4.46965663 122.08486063 -4.536273 111.55170314 -4.61071491 101.01854324 C-4.65533225 94.63591031 -4.69460744 88.25333994 -4.72143555 81.87060547 C-4.74755458 75.70427343 -4.78801783 69.53818326 -4.83818626 63.37200165 C-4.85479689 61.02627331 -4.86634713 58.6805032 -4.87261391 56.33472443 C-4.02251728 35.50040949 -4.02251728 35.50040949 -12.375 17.25 C-21.40429851 11.49731291 -31.33439405 10.90197164 -41.76171875 12.8984375 C-54.4341629 16.47546034 -64.62617245 23.57546759 -74.375 32.25 C-75.07272522 32.74352966 -75.77045044 33.23705933 -76.48931885 33.74554443 C-79.45777389 37.68807934 -78.94566389 41.62560945 -78.92089844 46.43457031 C-78.93123611 47.4690329 -78.94157379 48.50349548 -78.95222473 49.56930542 C-78.98172593 52.98906947 -78.98315349 56.40824353 -78.984375 59.828125 C-78.99935164 62.1989658 -79.01607769 64.56979615 -79.03448486 66.94061279 C-79.07822814 73.18115713 -79.09817309 79.42156072 -79.11322021 85.66223145 C-79.13276602 92.03011421 -79.1747389 98.3978444 -79.21484375 104.765625 C-79.29022175 117.26039551 -79.33839495 129.75505567 -79.375 142.25 C-85.975 142.25 -92.575 142.25 -99.375 142.25 C-99.375 94.4 -99.375 46.55 -99.375 -2.75 C-92.775 -2.75 -86.175 -2.75 -79.375 -2.75 C-79.045 3.52 -78.715 9.79 -78.375 16.25 C-76.725 14.765 -75.075 13.28 -73.375 11.75 C-53.49214092 -5.19321893 -23.96047349 -12.42394922 0 0 Z " fill="#002349" transform="translate(448.375,65.75)"/>
<path d="M0 0 C6.6 0 13.2 0 20 0 C20.33 25.41 20.66 50.82 21 77 C24.37580247 73.63325351 24.37580247 73.63325351 27.7109375 70.2265625 C31.88335505 66.21085546 36.30162566 63.62403707 41.5 61.1875 C42.42498291 60.75268311 42.42498291 60.75268311 43.36865234 60.30908203 C57.94755471 53.77954988 74.91565771 53.20063398 89.92089844 58.70458984 C105.24476192 65.0160515 114.46716932 75.61778365 121.5703125 90.23046875 C131.83114706 114.96092331 131.67679456 146.94937448 121.54223633 171.69311523 C114.96918481 186.55349553 103.78233624 197.22202731 88.8125 203.25 C71.83414325 208.92534959 55.07906092 207.66880113 39 200 C32.17843049 196.48732836 26.62023337 192.20391979 21 187 C20.67 192.61 20.34 198.22 20 204 C13.4 204 6.8 204 0 204 C0 136.68 0 69.36 0 0 Z M20 96 C19.85305072 98.12372853 19.77688167 100.25237504 19.7277832 102.38061523 C19.71157425 103.04744827 19.6953653 103.71428131 19.67866516 104.40132141 C19.5379263 110.58151227 19.46020404 116.76316246 19.39974689 122.94460964 C19.35888095 127.09535616 19.29880803 131.24372464 19.19067383 135.39331055 C19.08640096 139.40829545 19.03225908 143.42116585 19.01228905 147.43742561 C18.99643762 148.9617503 18.9633892 150.4860049 18.91213417 152.00955009 C18.59953002 161.02844147 18.59953002 161.02844147 22.16661072 169.13189697 C24.65986134 171.66283015 27.16500535 173.86413182 30 176 C30.6414093 176.50586136 31.2828186 177.01172272 31.94366455 177.53291321 C44.02773125 186.52711491 57.33993719 191.55032485 72.5 189.4375 C84.09267456 186.92463702 93.08245784 180.9984056 99.6875 171.25 C109.94949709 153.73034049 111.31472866 128.47361492 106.375 109.0625 C102.67052537 96.86483965 97.09334777 84.99853302 85.89453125 78.08203125 C60.70587664 65.16555915 38.46978387 77.53021613 20 96 Z " fill="#002349" transform="translate(892,336)"/>
<path d="M0 0 C0.68578125 0.47824219 1.3715625 0.95648438 2.078125 1.44921875 C14.94741764 11.50652028 22.10545232 29.27625938 24.49609375 44.96484375 C27.52951718 70.42527074 26.3943341 98.71268806 9.99609375 119.63671875 C-0.89907625 132.53608832 -14.25173798 138.91726438 -31.03515625 140.80859375 C-51.00093606 141.77245898 -67.21838262 133.93391521 -82 121 C-82.33 144.76 -82.66 168.52 -83 193 C-89.6 193 -96.2 193 -103 193 C-103 126.67 -103 60.34 -103 -8 C-96.4 -8 -89.8 -8 -83 -8 C-82.67 -2.06 -82.34 3.88 -82 10 C-80.659375 8.68 -79.31875 7.36 -77.9375 6 C-68.91079484 -2.10613466 -57.97019094 -7.78048758 -46 -10 C-45.27941406 -10.14050781 -44.55882812 -10.28101563 -43.81640625 -10.42578125 C-28.35206576 -12.78090099 -12.69123187 -8.99326948 0 0 Z M-83 30 C-83.14694928 32.12372853 -83.22311833 34.25237504 -83.2722168 36.38061523 C-83.28842575 37.04744827 -83.3046347 37.71428131 -83.32133484 38.40132141 C-83.4620737 44.58151227 -83.53979596 50.76316246 -83.60025311 56.94460964 C-83.64111905 61.09535616 -83.70119197 65.24372464 -83.80932617 69.39331055 C-83.91359904 73.40829545 -83.96774092 77.42116585 -83.98771095 81.43742561 C-84.00356238 82.9617503 -84.0366108 84.4860049 -84.08786583 86.00955009 C-84.40046998 95.02844147 -84.40046998 95.02844147 -80.83338928 103.13189697 C-78.34013866 105.66283015 -75.83499465 107.86413182 -73 110 C-72.3585907 110.50586136 -71.7171814 111.01172272 -71.05633545 111.53291321 C-58.97226875 120.52711491 -45.66006281 125.55032485 -30.5 123.4375 C-18.90732544 120.92463702 -9.91754216 114.9984056 -3.3125 105.25 C7.14282707 87.40028044 8.03964209 62.27707189 3.375 42.5 C0.18804452 30.49028559 -6.311159 18.75837707 -17.10546875 12.078125 C-42.30801334 -0.81477235 -64.51863156 11.51863156 -83 30 Z " fill="#002349" transform="translate(677,402)"/>
<path d="M0 0 C7.56705509 6.74230795 11.27618124 16.00506172 12.875 25.8125 C13.02699823 28.76256583 13.02899007 31.70980124 13.03271484 34.66333008 C13.03779556 35.54544159 13.04287628 36.4275531 13.04811096 37.33639526 C13.05879422 39.24936246 13.06742238 41.162342 13.07423019 43.07532692 C13.08607457 46.11723324 13.1055462 49.15900109 13.12734985 52.20085144 C13.18874633 60.84926639 13.24276884 69.49766908 13.27636719 78.14624023 C13.29749353 83.44303501 13.33294555 88.73957969 13.37712479 94.03623009 C13.3911525 96.04093132 13.39997681 98.04567683 13.40317917 100.05042458 C13.42230141 110.88438761 13.89662984 121.08503356 16.23550415 131.68583679 C16.875 134.8125 16.875 134.8125 16.875 138.8125 C10.275 138.8125 3.675 138.8125 -3.125 138.8125 C-5.43169918 131.89240246 -6.58082326 127.66912697 -7.125 120.8125 C-7.79402344 121.369375 -8.46304687 121.92625 -9.15234375 122.5 C-27.12767692 136.78375468 -48.08762528 143.43986422 -71.125 141.8125 C-81.55795899 140.1946181 -91.62471156 136.51597654 -98.5 128.13671875 C-105.13923614 118.5928168 -106.2488632 107.07410129 -104.4375 95.875 C-101.62711152 83.35423477 -94.24218025 74.14353269 -83.625 67.1875 C-65.6064809 55.93107405 -45.29388438 50.72666246 -24.6875 46.4375 C-23.42462158 46.17445068 -22.16174316 45.91140137 -20.8605957 45.64038086 C-10.9970459 43.65405035 -10.9970459 43.65405035 -6.125 43.8125 C-7.18623092 27.36432393 -7.18623092 27.36432393 -15.9375 13.875 C-22.25315709 9.78839835 -28.14238242 8.26921526 -35.625 8.375 C-36.40472168 8.38402344 -37.18444336 8.39304687 -37.98779297 8.40234375 C-56.0514931 8.92921692 -72.64571044 16.02882554 -85.98828125 28.125 C-88.125 29.8125 -88.125 29.8125 -91.125 29.8125 C-93.421875 27.765625 -93.421875 27.765625 -95.875 25.0625 C-96.69484375 24.18078125 -97.5146875 23.2990625 -98.359375 22.390625 C-100.125 19.8125 -100.125 19.8125 -100.09375 17.6875 C-94.09686253 6.08062103 -75.35862816 -1.50636256 -63.57421875 -5.34375 C-42.92418727 -11.44935593 -18.34713495 -12.84299446 0 0 Z M-77.5 83.5625 C-82.50035588 88.87664339 -85.21250738 95.00364637 -85.625 102.3125 C-85.28127803 108.38134101 -83.5712843 114.23886033 -79.32421875 118.70703125 C-70.77335373 125.53111964 -60.62534882 125.74327225 -50.125 124.8125 C-35.64207143 122.79519838 -22.00278903 116.63062369 -11.125 106.8125 C-9.84181885 105.83301392 -9.84181885 105.83301392 -8.53271484 104.83374023 C-5.08902036 100.51253569 -5.48880792 97.06761716 -5.63671875 91.69921875 C-5.64379349 90.72966751 -5.65086823 89.76011627 -5.65815735 88.76118469 C-5.68608126 85.67332863 -5.74881697 82.58730525 -5.8125 79.5 C-5.83758542 77.40302103 -5.86039816 75.30601356 -5.88085938 73.20898438 C-5.93590162 68.07611991 -6.02216141 62.94462036 -6.125 57.8125 C-28.04864564 57.8125 -61.24901957 68.66077071 -77.5 83.5625 Z " fill="#002349" transform="translate(1118.125,69.1875)"/>
<path d="M0 0 C0.61359375 0.41636719 1.2271875 0.83273437 1.859375 1.26171875 C14.12261294 10.62790736 20.15570108 26.07402052 23.3125 40.625 C23.48434814 41.38111572 23.65619629 42.13723145 23.83325195 42.91625977 C25.5893446 51.82877385 25 59.48445596 25 69 C-8.99 69 -42.98 69 -78 69 C-75.80989076 87.61592853 -73.05865019 103.25098142 -58.24609375 115.46484375 C-46.8899939 123.22649113 -33.79656075 124.7890309 -20.44921875 122.3515625 C-6.26992997 118.37796541 3.31532087 110.2954866 11 98 C16.40489519 99.52012677 19.98492628 103.27385218 24 107 C20.12267537 119.40743882 8.60155111 128.37541737 -2.38671875 134.23828125 C-17.78715583 142.01898988 -36.40073389 143.61871602 -53.05078125 139.03515625 C-70.73450018 132.82828802 -83.12657076 121.13441144 -91.26416016 104.41650391 C-100.56433715 84.0235139 -102.21467716 56.102782 -94.74072266 34.90332031 C-90.9378212 25.13159329 -86.20367182 15.71600193 -79 8 C-78.38125 7.32839844 -77.7625 6.65679687 -77.125 5.96484375 C-56.36913409 -14.43722899 -23.55631858 -16.26703818 0 0 Z M-63.375 17.75 C-72.7095951 27.97544858 -76.4901979 39.41178108 -78 53 C-50.28 53 -22.56 53 6 53 C3.62829687 36.39807812 0.39192841 23.05104272 -13.0703125 12.28125 C-28.8413504 1.80979163 -49.87033279 5.01850076 -63.375 17.75 Z " fill="#002349" transform="translate(517,402)"/>
<path d="M0 0 C14.76150766 12.31387306 22.58218638 30.79476515 25.22265625 49.53125 C27.10615972 73.92491686 23.5843737 99.32621267 7.16015625 118.53125 C-5.06273299 131.3134918 -20.30205543 138.05983584 -37.86743164 138.56079102 C-57.31348377 138.77197411 -72.66622546 133.8223181 -86.796875 120.01953125 C-104.07828594 101.89753665 -107.03414566 79.51827786 -106.8125 55.4921875 C-106.59465963 46.91650186 -105.2253381 39.26896912 -102.52734375 31.15625 C-102.09421875 29.76019531 -102.09421875 29.76019531 -101.65234375 28.3359375 C-95.93886601 12.06272859 -83.60358061 -0.08624512 -68.52734375 -7.84375 C-45.64533694 -17.14712762 -20.10043382 -14.66368588 0 0 Z M-68.52734375 14.15625 C-69.130625 14.66929688 -69.73390625 15.18234375 -70.35546875 15.7109375 C-80.30135108 24.74871753 -85.93972731 39.44527972 -86.66772461 52.71508789 C-87.35134661 73.19817608 -86.17966779 93.70216951 -71.30859375 109.6015625 C-60.89897221 118.68715323 -50.11748916 122.00173082 -36.5 121.5 C-24.34932383 120.44861406 -15.97166004 115.06673185 -7.77734375 106.34375 C0.35023057 96.52684153 4.93712352 82.85283851 5.47265625 70.15625 C5.55 68.54556641 5.55 68.54556641 5.62890625 66.90234375 C6.09693412 48.20073014 2.0653173 30.56734586 -10.52734375 16.15625 C-19.959038 6.99695125 -31.06446322 3.74729935 -43.9765625 3.87890625 C-53.47034948 4.62044517 -61.51885591 7.73697131 -68.52734375 14.15625 Z " fill="#002349" transform="translate(291.52734375,72.84375)"/>
<path d="M0 0 C6.6 0 13.2 0 20 0 C20.01458252 3.17850586 20.02916504 6.35701172 20.04418945 9.63183594 C20.09465663 20.16513937 20.161273 30.69829686 20.23571491 41.23145676 C20.28033225 47.61408969 20.31960744 53.99666006 20.34643555 60.37939453 C20.37255458 66.54572657 20.41301783 72.71181674 20.46318626 78.87799835 C20.47979689 81.22372669 20.49134713 83.5694968 20.49761391 85.91527557 C19.61751817 106.78373173 19.61751817 106.78373173 28 125 C38.11048015 131.27192497 48.2236552 132.46287661 59.8125 129.9375 C72.59821324 126.36939398 83.01016596 119.4956281 93 111 C93.70529846 110.50385193 94.41059692 110.00770386 95.13726807 109.496521 C98.09104624 105.53772848 97.57045238 101.53716486 97.54589844 96.72363281 C97.56140495 95.15730858 97.56140495 95.15730858 97.57722473 93.55934143 C97.60672744 90.10711327 97.60815353 86.6554695 97.609375 83.203125 C97.62435154 80.80986406 97.64107756 78.41661348 97.65948486 76.02337646 C97.7032293 69.72364842 97.72317335 63.4240598 97.73822021 57.12420654 C97.7577656 50.69600149 97.79973853 44.26794759 97.83984375 37.83984375 C97.91522301 25.22658346 97.96339542 12.61343249 98 0 C104.93 0 111.86 0 119 0 C119 48.18 119 96.36 119 146 C112.07 146 105.14 146 98 146 C97.67 139.4 97.34 132.8 97 126 C94.958125 127.98 94.958125 127.98 92.875 130 C77.19115203 144.00972937 57.84272666 149.91278833 36.99804688 149.13183594 C26.18553444 148.41840037 16.54804047 144.09910577 9.125 136.1875 C0.76240799 125.79820922 -0.31920074 113.38451665 -0.22705078 100.4699707 C-0.22734283 99.37596451 -0.22763489 98.28195831 -0.22793579 97.15480042 C-0.22655471 93.57837688 -0.21105146 90.0021679 -0.1953125 86.42578125 C-0.19157802 83.93043634 -0.1887331 81.43508995 -0.18673706 78.93974304 C-0.17913486 72.40170172 -0.15951589 65.86375056 -0.1373291 59.32574463 C-0.11570143 52.64231111 -0.10771961 45.95884939 -0.09765625 39.27539062 C-0.07626661 26.18355434 -0.04217218 13.09178469 0 0 Z " fill="#002349" transform="translate(734,394)"/>
<path d="M0 0 C10.01357417 9.15832228 13.34403665 19.52012262 14.17813492 32.84593964 C14.24276401 35.71933522 14.24802203 38.58593026 14.22705078 41.45996094 C14.22734283 42.53460602 14.22763489 43.6092511 14.22793579 44.71646118 C14.22655695 48.22251838 14.21106455 51.72835553 14.1953125 55.234375 C14.19157722 57.68345015 14.18873268 60.13252681 14.18673706 62.581604 C14.17914115 68.99304409 14.15952773 75.40439197 14.1373291 81.8157959 C14.11678319 88.37197625 14.10771672 94.92817166 14.09765625 101.484375 C14.07627772 114.32296346 14.04112889 127.1614596 14 140 C7.4 140 0.8 140 -6 140 C-6.01458252 136.85178711 -6.02916504 133.70357422 -6.04418945 130.45996094 C-6.09465915 120.02644146 -6.16127594 109.59306928 -6.23571491 99.15969467 C-6.28033013 92.83759602 -6.31960577 86.5155605 -6.34643555 80.19335938 C-6.37255672 74.08538082 -6.41302142 67.97764637 -6.46318626 61.86981964 C-6.47979546 59.54642029 -6.49134659 57.22297877 -6.49761391 54.8995285 C-5.66561212 34.15584076 -5.66561212 34.15584076 -14 16 C-23.35814444 9.5739571 -32.89499395 8.85859734 -44.0234375 10.42578125 C-56.65881044 13.1865933 -67.37160539 19.5415581 -77 28 C-77.57169198 28.37968241 -78.14338396 28.75936481 -78.73239994 29.15055275 C-81.58804347 31.19051033 -83.6481395 32.79252626 -84.65237236 36.2387352 C-84.90135879 38.98400021 -84.93143578 41.65529113 -84.88647461 44.41162109 C-84.89725037 45.44637573 -84.90802612 46.48113037 -84.91912842 47.54724121 C-84.94646792 50.95670238 -84.92465951 54.36397004 -84.90234375 57.7734375 C-84.91172874 60.14142223 -84.92418645 62.50939662 -84.93959045 64.87734985 C-84.97183377 71.10165558 -84.96236702 77.32522496 -84.94421387 83.54956055 C-84.93306108 89.90421629 -84.96135451 96.25868296 -84.98632812 102.61328125 C-85.02949204 115.07573221 -85.02494647 127.53749904 -85 140 C-91.6 140 -98.2 140 -105 140 C-105 92.15 -105 44.3 -105 -5 C-98.4 -5 -91.8 -5 -85 -5 C-84.67 1.6 -84.34 8.2 -84 15 C-82.783125 13.845 -81.56625 12.69 -80.3125 11.5 C-70.71733588 3.02926917 -60.23261027 -2.37280344 -48 -6 C-47.18402344 -6.24621094 -46.36804688 -6.49242187 -45.52734375 -6.74609375 C-30.66979573 -10.44136727 -12.56386607 -9.25031897 0 0 Z " fill="#002349" transform="translate(763,68)"/>
<path d="M0 0 C7.35288671 6.43005478 11.28326286 15.16216003 12.9296875 24.6875 C13.01409475 26.34153864 13.05175206 27.99842737 13.04994202 29.65461731 C13.05200401 31.11636887 13.05200401 31.11636887 13.05410767 32.60765076 C13.04871475 34.19368858 13.04871475 34.19368858 13.04321289 35.81176758 C13.04335892 36.93415833 13.04350494 38.05654907 13.0436554 39.21295166 C13.04295926 42.91933125 13.03518078 46.62566045 13.02734375 50.33203125 C13.02547851 52.90321322 13.02405511 55.47439555 13.02305603 58.045578 C13.01962923 64.11925941 13.01174933 70.19292005 13.00170654 76.26659364 C12.99051896 83.18314138 12.98502829 90.09968999 12.98001111 97.01624453 C12.969566 111.24000631 12.95178099 125.46375186 12.9296875 139.6875 C6.3296875 139.6875 -0.2703125 139.6875 -7.0703125 139.6875 C-7.0796582 136.41287842 -7.08900391 133.13825684 -7.09863281 129.7644043 C-7.13246804 118.91974831 -7.18805361 108.0752813 -7.25421524 97.23077679 C-7.29364837 90.65864277 -7.32585751 84.08664192 -7.34130859 77.5144043 C-7.35650224 71.16648315 -7.39099681 64.81892818 -7.43862152 58.47117043 C-7.45340723 56.05484012 -7.46135189 53.63845753 -7.46219635 51.22208214 C-7.46457612 47.82564062 -7.49173882 44.43020282 -7.52441406 41.03393555 C-7.5193837 40.04490234 -7.51435333 39.05586914 -7.50917053 38.03686523 C-7.61965851 30.56651063 -8.82492343 22.66768448 -13.6836586 16.7088728 C-19.68593092 10.90785562 -26.7717869 9.52688834 -34.8828125 9.3125 C-52.68561177 9.80808114 -67.15869982 17.86481851 -80.0703125 29.6875 C-81.11363739 30.42670685 -81.11363739 30.42670685 -82.17803955 31.18084717 C-85.15459651 35.12382745 -84.64100079 39.05837325 -84.61621094 43.87207031 C-84.62654861 44.9065329 -84.63688629 45.94099548 -84.64753723 47.00680542 C-84.67703843 50.42656947 -84.67846599 53.84574353 -84.6796875 57.265625 C-84.69466414 59.6364658 -84.71139019 62.00729615 -84.72979736 64.37811279 C-84.77354064 70.61865713 -84.79348559 76.85906072 -84.80853271 83.09973145 C-84.82807852 89.46761421 -84.8700514 95.8353444 -84.91015625 102.203125 C-84.98553425 114.69789551 -85.03370745 127.19255567 -85.0703125 139.6875 C-91.6703125 139.6875 -98.2703125 139.6875 -105.0703125 139.6875 C-105.0703125 91.8375 -105.0703125 43.9875 -105.0703125 -5.3125 C-98.4703125 -5.3125 -91.8703125 -5.3125 -85.0703125 -5.3125 C-84.7403125 1.2875 -84.4103125 7.8875 -84.0703125 14.6875 C-81.7603125 12.3775 -79.4503125 10.0675 -77.0703125 7.6875 C-55.94120804 -7.96674536 -23.00108523 -16.85061189 0 0 Z " fill="#002349" transform="translate(1275.0703125,68.3125)"/>
<path d="M0 0 C6.14042758 6.42860649 13.27611688 16.00289445 14.375 25 C12.48307525 25.98669759 10.58628022 26.9640602 8.6875 27.9375 C7.10388672 28.75541016 7.10388672 28.75541016 5.48828125 29.58984375 C2.71265953 30.8470576 0.37227874 31.56069569 -2.625 32 C-3.36943359 30.62328125 -3.36943359 30.62328125 -4.12890625 29.21875 C-11.06477841 16.58678422 -17.2206592 8.22993211 -31.4921875 3.36328125 C-43.86707804 1.25547022 -56.03346893 2.64375308 -66.4375 9.984375 C-78.05877198 19.73794255 -84.2313053 34.03068654 -85.625 49 C-86.73657792 69.30251653 -84.72163621 88.87236136 -71.91796875 105.51953125 C-64.68745031 113.34130163 -55.34483497 117.2214371 -44.875 118.27734375 C-33.00481631 118.69887016 -22.99403027 114.98437484 -14.1875 107.125 C-8.88834358 101.6418451 -5.36384628 94.58749106 -1.625 88 C3.84237191 89.74807129 9.13324848 91.65794081 14.375 94 C13.89625148 99.156357 12.02968169 102.72315121 9.1875 106.9375 C8.77677246 107.5557666 8.36604492 108.1740332 7.94287109 108.81103516 C-1.26076388 122.4954347 -13.44487529 132.00039803 -29.796875 135.4609375 C-47.21913694 137.91427643 -62.67638937 135.68369116 -77.625 126 C-94.44879568 113.17393795 -102.48875664 96.17664408 -106.21484375 75.76953125 C-108.96842355 50.46282161 -105.57707425 26.13769653 -89.75 5.5625 C-79.11276083 -7.13355965 -63.78478221 -14.36917545 -47.359375 -15.8984375 C-29.22354598 -16.57205401 -13.64809302 -12.53829999 0 0 Z " fill="#002349" transform="translate(1273.625,407)"/>
<path d="M0 0 C7.96573592 6.41089638 13.11154164 14.1576415 18 23 C18.60328125 24.05574219 18.60328125 24.05574219 19.21875 25.1328125 C20 27 20 27 20 31 C14.72 33.31 9.44 35.62 4 38 C1.63572929 35.63572929 0.71455577 33.40958647 -0.6875 30.375 C-5.42101965 20.80480895 -11.42552592 13.89887279 -21.53125 10.03125 C-33.06942013 6.45043858 -43.92178683 7.18990252 -55 12 C-63.46679672 16.65509522 -68.60223831 22.46954719 -73 31 C-73.39832031 31.76828125 -73.79664063 32.5365625 -74.20703125 33.328125 C-82.5004543 51.59229261 -81.98217766 74.65604532 -75.75 93.3125 C-72.63575983 101.48280069 -68.53756158 108.13295756 -62 114 C-61.2575 114.680625 -60.515 115.36125 -59.75 116.0625 C-50.02871923 122.91158418 -39.58438435 124.04228219 -28 123 C-15.8739735 120.4215618 -7.84527405 113.0124904 -1 103 C0.83703843 99.73514236 2.48423081 96.42505539 4 93 C9.99932374 94.8331267 15.44920563 97.07321751 21 100 C16.57290719 114.6286545 4.69361824 128.24778189 -8.73046875 135.46875 C-23.99437816 142.71121184 -42.86241503 143.87695249 -58.9375 138.3125 C-74.82233607 131.50471311 -87.08202822 119.95625157 -93.88720703 103.90771484 C-103.51660618 79.37037831 -103.94606379 51.55778274 -94 27 C-86.52049988 11.12704587 -74.35034291 -0.41615004 -58.1171875 -6.9921875 C-38.52155535 -13.32761744 -17.25546669 -11.48193947 0 0 Z " fill="#002349" transform="translate(969,70)"/>
<path d="M0 0 C2.97 0 5.94 0 9 0 C9 176.55 9 353.1 9 535 C6.03 535 3.06 535 0 535 C0 358.45 0 181.9 0 0 Z " fill="#002349" transform="translate(1469,4)"/>
<path d="M0 0 C6.6 0 13.2 0 20 0 C20 67.32 20 134.64 20 204 C13.4 204 6.8 204 0 204 C0 136.68 0 69.36 0 0 Z " fill="#002349" transform="translate(1054,336)"/>
<path d="M0 0 C6.6 0 13.2 0 20 0 C20 48.18 20 96.36 20 146 C13.4 146 6.8 146 0 146 C0 97.82 0 49.64 0 0 Z " fill="#002349" transform="translate(1115,394)"/>
<path d="M0 0 C6.6 0 13.2 0 20 0 C20 47.85 20 95.7 20 145 C13.4 145 6.8 145 0 145 C0 97.15 0 49.3 0 0 Z " fill="#002349" transform="translate(816,63)"/>
<path d="M0 0 C6.6 0 13.2 0 20 0 C20 47.85 20 95.7 20 145 C13.4 145 6.8 145 0 145 C0 97.15 0 49.3 0 0 Z " fill="#002349" transform="translate(598,63)"/>
<path d="M0 0 C11 0 11 0 14.609375 3.59472656 C15.69583978 5.25139541 16.74047394 6.93598002 17.75 8.640625 C18.33305908 9.55084412 18.91611816 10.46106323 19.5168457 11.39886475 C21.38206161 14.32745768 23.1916843 17.28600838 25 20.25 C26.18250497 22.13513405 27.36867823 24.01797227 28.55859375 25.8984375 C29.75613281 27.79335938 30.95367188 29.68828125 32.1875 31.640625 C40.81739171 45.29311369 49.93100499 58.63516525 59 72 C59.33 48.24 59.66 24.48 60 0 C62.97 0 65.94 0 69 0 C69 30.36 69 60.72 69 92 C60 92 60 92 57.86987305 90.34960938 C57.35980713 89.52267578 56.84974121 88.69574219 56.32421875 87.84375 C55.34654541 86.33167969 55.34654541 86.33167969 54.34912109 84.7890625 C53.98542419 84.19834961 53.62172729 83.60763672 53.24700928 82.99902344 C51.82962312 80.72687662 50.35277192 78.50061025 48.86572266 76.2734375 C45.14965033 70.70289969 41.47966726 65.10281217 37.8125 59.5 C35.93277217 56.63003009 34.05215618 53.76065645 32.1693573 50.8927002 C31.00744866 49.12266901 29.84717115 47.35156508 28.68916321 45.57897949 C22.59327081 36.28900819 16.27899005 27.17698546 10 18 C9.67 42.42 9.34 66.84 9 92 C6.03 92 3.06 92 0 92 C0 61.64 0 31.28 0 0 Z " fill="#002349" transform="translate(2453,448)"/>
<path d="M0 0 C3.63 0 7.26 0 11 0 C14.15677734 3.31036795 16.09012174 5.94587652 18.375 9.8125 C19.4237688 11.4667655 20.47280357 13.12087038 21.52702332 14.77166748 C22.31521756 16.01074124 23.09823051 17.25312256 23.87666321 18.49835205 C29.49203913 27.46872899 35.50118674 36.17959853 41.44390869 44.93466187 C44.65879022 49.67627501 47.85855551 54.42804993 51.05859375 59.1796875 C51.91373314 60.4484951 51.91373314 60.4484951 52.78614807 61.74293518 C54.86315477 64.82490345 56.93844288 67.90766431 59 71 C59.33 47.57 59.66 24.14 60 0 C62.97 0 65.94 0 69 0 C69 30.36 69 60.72 69 92 C60 92 60 92 57.89077759 90.43725586 C57.42875946 89.70385986 56.96674133 88.97046387 56.49072266 88.21484375 C55.67409653 86.97093872 55.67409653 86.97093872 54.8409729 85.7019043 C54.28759247 84.78965088 53.73421204 83.87739746 53.1640625 82.9375 C52.55920013 81.9988208 51.95433777 81.0601416 51.33114624 80.09301758 C49.39871208 77.08015057 47.51143727 74.04183188 45.625 71 C44.36495749 69.01373248 43.10196338 67.02933414 41.8359375 65.046875 C39.96906606 62.12088441 38.10522757 59.19331133 36.25372314 56.25756836 C32.31801237 50.01973799 28.27777661 43.87727496 24.04556274 37.83666992 C19.23554095 30.96880943 14.65853371 23.98780057 10 17 C9.67 41.75 9.34 66.5 9 92 C6.03 92 3.06 92 0 92 C0 61.64 0 31.28 0 0 Z " fill="#002349" transform="translate(2052,448)"/>
<path d="M0 0 C11 0 11 0 14.17871094 2.85693359 C15.06976126 4.17852508 15.91973777 5.52842257 16.734375 6.8984375 C17.21195755 7.62840439 17.6895401 8.35837128 18.18159485 9.11045837 C19.74088051 11.51059201 21.24419218 13.94103225 22.75 16.375 C23.82209243 18.04448501 24.89823855 19.71137331 25.97827148 21.37573242 C28.21309006 24.82655613 30.42940494 28.28827537 32.63427734 31.75830078 C37.93439834 40.06103403 43.51622966 48.17332511 49.0625 56.3125 C52.341875 61.159375 55.62125 66.00625 59 71 C59.33 47.57 59.66 24.14 60 0 C62.97 0 65.94 0 69 0 C69 30.36 69 60.72 69 92 C60 92 60 92 57.89750671 90.44398499 C57.20900383 89.3484153 57.20900383 89.3484153 56.5065918 88.23071289 C55.96540207 87.40467056 55.42421234 86.57862823 54.86662292 85.72755432 C54.31637955 84.81843796 53.76613617 83.90932159 53.19921875 82.97265625 C52.59672806 82.03634872 51.99423737 81.1000412 51.37348938 80.13536072 C49.44773299 77.12920512 47.56700871 74.09773894 45.6875 71.0625 C43.81625734 68.10536991 41.93610511 65.15403437 40.05569458 62.20272827 C38.81710317 60.25620164 37.58246463 58.30715417 36.35177612 56.35562134 C32.1997048 49.7903649 27.88316788 43.38087201 23.31022644 37.10133362 C18.56858013 30.55466389 14.4045822 23.8515723 10 17 C9.67 41.75 9.34 66.5 9 92 C6.03 92 3.06 92 0 92 C0 61.64 0 31.28 0 0 Z " fill="#002349" transform="translate(1703,448)"/>
<path d="M0 0 C48.61405109 0 48.61405109 0 57.3046875 7.23046875 C62.45520314 12.60646779 63.26835806 18.28025638 63.5 25.5625 C63.2239082 34.19899668 61.47441974 38.89440013 55.25 44.8125 C51.55002784 48.08495437 47.610205 49.39414408 43 51 C44.86277357 54.48461449 46.72858091 57.96758708 48.59692383 61.44921875 C49.53553371 63.19970838 50.47190186 64.95139945 51.40820312 66.703125 C55.02052496 73.43083551 58.75267643 80.04601314 62.73022461 86.56542969 C64 89 64 89 64 92 C60.37 92 56.74 92 53 92 C52.54149658 91.13834229 52.08299316 90.27668457 51.6105957 89.38891602 C49.88745698 86.15117454 48.16324078 82.91400786 46.4387207 79.67700195 C45.69657078 78.28360059 44.95470197 76.89004946 44.21313477 75.49633789 C43.1389476 73.47761933 42.06381056 71.45941002 40.98828125 69.44140625 C40.64113068 68.78927155 40.2939801 68.13713684 39.93630981 67.46524048 C37.62833968 63.1413656 35.25833176 58.85850319 32.80151367 54.61694336 C32 53 32 53 32 51 C24.74 51 17.48 51 10 51 C10 64.53 10 78.06 10 92 C6.7 92 3.4 92 0 92 C0 61.64 0 31.28 0 0 Z M10 9 C10 19.89 10 30.78 10 42 C14.57875 42.0825 19.1575 42.165 23.875 42.25 C25.29796387 42.28641602 26.72092773 42.32283203 28.18701172 42.36035156 C35.77019549 42.42608026 42.38532207 42.01002181 49 38 C53.37441743 33.00066579 53.6281546 28.35495595 53.3828125 21.8125 C52.85369837 17.92513086 51.73324352 15.80517098 49 13 C43.3297222 9.57420716 38.81375647 8.87362388 32.265625 8.90234375 C31.09805664 8.90484131 29.93048828 8.90733887 28.72753906 8.90991211 C27.24995117 8.91901611 25.77236328 8.92812012 24.25 8.9375 C17.19625 8.9684375 17.19625 8.9684375 10 9 Z " fill="#002349" transform="translate(2749,448)"/>
<path d="M0 0 C49.10735428 0 49.10735428 0 58.1484375 8.76953125 C62.92412198 14.52251825 63.51913431 21.07553619 63.28515625 28.359375 C62.58695377 34.82492121 60.086586 40.75120464 55 45 C46.75461741 50 46.75461741 50 42 50 C43.97683931 53.66792588 45.95656978 57.33428193 47.9375 61 C48.52490967 62.08748535 49.11231934 63.1749707 49.7175293 64.29541016 C53.545241 71.36412308 57.42596955 78.39750254 61.45874023 85.3515625 C64 89.78686529 64 89.78686529 64 92 C60.37 92 56.74 92 53 92 C52.01742566 90.23919201 51.03575083 88.47787828 50.05761719 86.71459961 C49.17278867 85.13145702 48.27726747 83.55425122 47.37207031 81.98266602 C44.75649258 77.39205112 42.45615951 72.82684263 40.4375 67.94140625 C36.44812349 57.61924982 36.44812349 57.61924982 28.31640625 50.93896484 C21.56994423 49.68563887 16.03497031 50.39945375 9 51 C9 64.53 9 78.06 9 92 C6.03 92 3.06 92 0 92 C0 61.64 0 31.28 0 0 Z M9 9 C9 19.89 9 30.78 9 42 C13.785 42.061875 18.57 42.12375 23.5 42.1875 C24.99337891 42.21481201 26.48675781 42.24212402 28.02539062 42.27026367 C39.05877872 42.57379152 39.05877872 42.57379152 48.54077148 37.58276367 C52.59534334 32.98814921 53.30086649 29.16902892 53.21484375 23.28125 C52.7836055 18.70228386 50.92087539 15.89598686 47.6875 12.75 C42.54421292 9.40088283 37.91790882 8.75283839 31.8515625 8.8046875 C30.04679443 8.81218018 30.04679443 8.81218018 28.20556641 8.81982422 C26.69397949 8.83803223 25.18239258 8.85624023 23.625 8.875 C18.79875 8.91625 13.9725 8.9575 9 9 Z " fill="#002349" transform="translate(1960,448)"/>
<path d="M0 0 C0.76166977 0.00222061 1.52333954 0.00444122 2.30809021 0.00672913 C3.16890701 0.00680466 4.02972382 0.00688019 4.91662598 0.00695801 C5.8520372 0.01211929 6.78744843 0.01728058 7.75120544 0.02259827 C8.70422043 0.02401321 9.65723541 0.02542816 10.63912964 0.02688599 C13.69605085 0.032503 16.75289996 0.04505836 19.80979919 0.05775452 C21.87685543 0.06276733 23.94391281 0.06733061 26.01097107 0.07142639 C31.08977507 0.08247795 36.16852489 0.09975397 41.24729919 0.12025452 C38.85950725 4.18750028 36.18837529 7.87829825 33.24729919 11.55775452 C32.25763885 12.8063914 31.26805772 14.05509107 30.27854919 15.30384827 C29.77452576 15.93790588 29.27050232 16.5719635 28.75120544 17.22523499 C26.40521572 20.18133437 24.07671332 23.15108942 21.74729919 26.12025452 C20.8307261 27.2869947 19.91405918 28.45366118 18.99729919 29.62025452 C18.54354919 30.19775452 18.08979919 30.77525452 17.62229919 31.37025452 C4.55979919 47.99525452 4.55979919 47.99525452 -8.50270081 64.62025452 C-8.95725647 65.19880188 -9.41181213 65.77734924 -9.88014221 66.37342834 C-10.78858445 67.52958349 -11.69711184 68.68567172 -12.60572815 69.84169006 C-15.02396362 72.91861427 -17.44032341 75.99699004 -19.85426331 79.07728577 C-20.36022034 79.72246155 -20.86617737 80.36763733 -21.38746643 81.03236389 C-22.36326639 82.27673265 -23.33854693 83.52150895 -24.31324768 84.76673889 C-27.64023861 89.00779232 -27.64023861 89.00779232 -28.75270081 90.12025452 C-30.43879046 90.19230963 -32.1277074 90.20411519 -33.81520081 90.18275452 C-35.19385315 90.16921936 -35.19385315 90.16921936 -36.60035706 90.15541077 C-37.31063049 90.1438092 -38.02090393 90.13220764 -38.75270081 90.12025452 C-36.72315491 83.73842229 -34.37530477 77.55221275 -31.79566956 71.37416077 C-31.41565292 70.45680145 -31.03563629 69.53944214 -30.644104 68.59428406 C-29.41236581 65.62256306 -28.17636099 62.65263846 -26.94020081 59.68275452 C-25.6578417 56.59329513 -24.3764116 53.5034514 -23.09498596 50.41360474 C-22.23339359 48.33640772 -21.37141386 46.25937133 -20.50904846 44.18249512 C-17.79738395 37.64983412 -15.10133792 31.11100486 -12.42066956 24.56556702 C-11.92886452 23.36573433 -11.92886452 23.36573433 -11.42712402 22.1416626 C-10.19226317 19.12873369 -8.95744993 16.11579575 -7.72715759 13.10099792 C-6.90190583 11.07917586 -6.07371196 9.05858309 -5.24488831 7.03822327 C-4.78453186 5.91182434 -4.32417542 4.78542542 -3.84986877 3.62489319 C-2.33205923 0.16000486 -2.33205923 0.16000486 0 0 Z " fill="#002349" transform="translate(3047.752700805664,85.87974548339844)"/>
<path d="M0 0 C10.56726944 8.19411148 14.42927367 19.3977394 17.0625 32.125 C18.23667501 47.97636266 16.41917809 63.79991035 6.56640625 76.8046875 C-0.44243664 84.52752894 -9.55318645 88.57599045 -19.78515625 89.73828125 C-29.06833402 90.08893806 -38.75715394 87.26719985 -45.9140625 81.2578125 C-56.44939833 70.81529901 -60.83969126 58.86014285 -61.06787109 44.19018555 C-61.03861727 28.17637656 -58.64225721 14.80642461 -47.3125 2.625 C-34.28794493 -9.5675901 -14.3956036 -9.55789736 0 0 Z M-41.6875 10.5 C-50.34480617 22.77561619 -53.18184447 35.93125858 -50.93310547 50.80273438 C-49.09737754 61.06733163 -45.38955569 70.20975 -36.6875 76.5 C-29.15080553 80.25723117 -22.44645909 81.70687167 -14.25 79.375 C-6.05878252 76.37480961 -0.45037276 71.35481804 3.3125 63.5 C8.75709038 50.08216011 8.99193334 35.20405479 4.3125 21.5 C0.66589724 13.51062485 -4.33734255 7.1889772 -12.5 3.625 C-22.56571957 0.38612684 -34.29144522 2.69305329 -41.6875 10.5 Z " fill="#002349" transform="translate(2408.6875,452.5)"/>
<path d="M0 0 C3.63 0 7.26 0 11 0 C14.87774189 10.83544548 18.74983464 21.67289375 22.61534119 32.51271057 C24.53419285 37.89326381 26.45486618 43.27315516 28.37890625 48.65185547 C30.35389013 54.17353185 32.32403381 59.69691465 34.29104614 65.22143555 C35.0553872 67.36558646 35.82139939 69.50914239 36.58908081 71.65209961 C37.66665647 74.66104871 38.73831468 77.67204293 39.80859375 80.68359375 C40.13287354 81.58484482 40.45715332 82.48609589 40.79125977 83.41465759 C41.08371582 84.24131424 41.37617188 85.06797089 41.67749023 85.91967773 C41.93425034 86.63905014 42.19101044 87.35842255 42.45555115 88.09959412 C43 90 43 90 43 93 C39.7 93 36.4 93 33 93 C24 69.26213592 24 69.26213592 24 65 C11.79 65 -0.42 65 -13 65 C-13.99 68.63 -14.98 72.26 -16 76 C-17.03185888 79.08051301 -18.07912426 82.1360458 -19.1875 85.1875 C-19.46013672 85.94869141 -19.73277344 86.70988281 -20.01367188 87.49414062 C-20.67208171 89.33075754 -21.33548137 91.16558451 -22 93 C-25.3 93 -28.6 93 -32 93 C-29.90387853 84.9630619 -27.42095326 77.16292839 -24.6484375 69.3359375 C-24.23010651 68.1456192 -23.81177551 66.9553009 -23.38076782 65.72891235 C-22.27242505 62.57789814 -21.16069731 59.42812075 -20.04736328 56.27886963 C-18.9462759 53.16102116 -17.85046966 50.04131689 -16.75390625 46.921875 C-11.24046139 31.25546281 -5.64744241 15.61857362 0 0 Z M5 13 C3.16052021 18.15725601 1.32763982 23.31679254 -0.49926758 28.47851562 C-1.12117317 30.2327328 -1.74485098 31.98632277 -2.37036133 33.73925781 C-3.27115411 36.26463073 -4.16546787 38.79221949 -5.05859375 41.3203125 C-5.47739052 42.48785568 -5.47739052 42.48785568 -5.90464783 43.6789856 C-6.16484207 44.41930023 -6.42503632 45.15961487 -6.69311523 45.92236328 C-6.92183823 46.56634064 -7.15056122 47.21031799 -7.38621521 47.87380981 C-8.15216036 50.52709333 -8.54599127 53.27594761 -9 56 C0.57 56 10.14 56 20 56 C18.234972 49.52823065 16.50682673 43.22842293 14.30078125 36.92578125 C14.0608696 36.23107224 13.82095795 35.53636322 13.57377625 34.82060242 C12.82335684 32.65006082 12.06804244 30.4812629 11.3125 28.3125 C10.79589521 26.82107737 10.27961686 25.32954163 9.76367188 23.83789062 C8.51286802 20.22394746 7.25767814 16.61155632 6 13 C5.67 13 5.34 13 5 13 Z " fill="#002349" transform="translate(2176,447)"/>
<path d="M0 0 C2.57161458 0.03255208 5.14322917 0.06510417 7.71484375 0.09765625 C11.4466425 8.75213283 14.7198059 17.51513619 17.8046875 26.41796875 C18.27613126 27.77027036 18.74786324 29.12247152 19.21986389 30.47457886 C20.20274241 33.29250983 21.18327475 36.11124116 22.16186523 38.93066406 C23.39672489 42.4883347 24.63576911 46.04452865 25.8763485 49.60020828 C30.92280326 64.06589736 35.94145855 78.53902066 40.71484375 93.09765625 C37.08484375 93.09765625 33.45484375 93.09765625 29.71484375 93.09765625 C28.20985366 88.80772292 26.71169738 84.51543467 25.21484375 80.22265625 C24.78558594 78.99933594 24.35632812 77.77601563 23.9140625 76.515625 C23.50800781 75.34902344 23.10195312 74.18242188 22.68359375 72.98046875 C22.11801758 71.36229248 22.11801758 71.36229248 21.54101562 69.71142578 C20.71484375 67.09765625 20.71484375 67.09765625 20.71484375 65.09765625 C8.83484375 65.42765625 -3.04515625 65.75765625 -15.28515625 66.09765625 C-18.20338841 74.2346194 -18.20338841 74.2346194 -21.11889648 82.37255859 C-21.48184814 83.3827002 -21.8447998 84.3928418 -22.21875 85.43359375 C-22.59056396 86.4704834 -22.96237793 87.50737305 -23.34545898 88.57568359 C-24.28515625 91.09765625 -24.28515625 91.09765625 -25.28515625 93.09765625 C-28.58515625 93.09765625 -31.88515625 93.09765625 -35.28515625 93.09765625 C-28.01284493 70.72131373 -20.1373706 48.56339451 -12.23744202 26.40240479 C-10.63416156 21.90321485 -9.03847722 17.40176772 -7.46630859 12.89160156 C-7.048675 11.69623276 -7.048675 11.69623276 -6.62260437 10.47671509 C-6.1069627 8.99854955 -5.59364985 7.51956879 -5.08308411 6.03964233 C-3.01912352 0.12902237 -3.01912352 0.12902237 0 0 Z M1.71484375 14.09765625 C-0.28293586 19.75626074 -2.27666264 25.41627015 -4.26660156 31.07763672 C-4.94451709 33.00446375 -5.62355007 34.93089801 -6.30371094 36.85693359 C-7.27961657 39.62105116 -8.25153088 42.38654369 -9.22265625 45.15234375 C-9.52888916 46.01697235 -9.83512207 46.88160095 -10.15063477 47.77243042 C-10.43092529 48.57310944 -10.71121582 49.37378845 -11 50.19873047 C-11.2487085 50.90488495 -11.49741699 51.61103943 -11.75366211 52.33859253 C-12.38156692 54.11047513 -12.38156692 54.11047513 -12.28515625 56.09765625 C-2.38515625 56.09765625 7.51484375 56.09765625 17.71484375 56.09765625 C16.06332661 51.24040351 14.41013339 46.38378743 12.75268555 41.52856445 C12.19017926 39.87915973 11.62864017 38.22942481 11.06811523 36.5793457 C10.25893544 34.19783966 9.44620225 31.81757096 8.6328125 29.4375 C8.385811 28.70804672 8.13880951 27.97859344 7.88432312 27.22703552 C6.35065904 22.75300405 4.62829842 18.42340397 2.71484375 14.09765625 C2.38484375 14.09765625 2.05484375 14.09765625 1.71484375 14.09765625 Z " fill="#002349" transform="translate(2942.28515625,446.90234375)"/>
<path d="M0 0 C3.63 0 7.26 0 11 0 C11.43642822 1.26440918 11.87285645 2.52881836 12.32250977 3.83154297 C14.39976938 9.84697636 16.48057831 15.86117872 18.5625 21.875 C18.94082977 22.96813507 19.31915955 24.06127014 19.70895386 25.18753052 C25.86344029 42.95887206 32.13157562 60.68670559 38.52758789 78.37255859 C38.83075928 79.21443222 39.13393066 80.05630585 39.44628906 80.9236908 C40.01055656 82.49055626 40.57737817 84.05650519 41.1472168 85.62135315 C43 90.77440643 43 90.77440643 43 93 C39.7 93 36.4 93 33 93 C30.22660497 87.13320282 27.91547882 81.17403386 25.75 75.0625 C25.47978027 74.30461182 25.20956055 73.54672363 24.93115234 72.76586914 C23 67.25121835 23 67.25121835 23 65 C11.12 65.33 -0.76 65.66 -13 66 C-15.92006084 74.51050428 -15.92006084 74.51050428 -18.83374023 83.02319336 C-19.19669189 84.07643799 -19.55964355 85.12968262 -19.93359375 86.21484375 C-20.30540771 87.29886475 -20.67722168 88.38288574 -21.06030273 89.49975586 C-22 92 -22 92 -23 93 C-26.00003445 93.14177857 -28.99757235 93.04228771 -32 93 C-30.50159232 85.35157072 -28.12187623 78.18138925 -25.52734375 70.83984375 C-25.08056483 69.56511781 -24.63416722 68.29025817 -24.18812561 67.01527405 C-23.25237315 64.34393383 -22.31320958 61.67382734 -21.37133789 59.00463867 C-20.1919573 55.66205899 -19.01921046 52.3172036 -17.84880638 48.97147179 C-12.10837916 32.56798398 -6.18223226 16.24300782 0 0 Z M4 14 C2.00222039 19.65860449 0.00849361 25.3186139 -1.98144531 30.97998047 C-2.65936084 32.9068075 -3.33839382 34.83324176 -4.01855469 36.75927734 C-4.99446032 39.52339491 -5.96637463 42.28888744 -6.9375 45.0546875 C-7.24373291 45.9193161 -7.54996582 46.7839447 -7.86547852 47.67477417 C-8.14576904 48.47545319 -8.42605957 49.2761322 -8.71484375 50.10107422 C-8.96355225 50.8072287 -9.21226074 51.51338318 -9.46850586 52.24093628 C-10.09641067 54.01281888 -10.09641067 54.01281888 -10 56 C-0.1 56 9.8 56 20 56 C19.15695313 53.47085938 18.31390625 50.94171875 17.4453125 48.3359375 C13.63020833 36.890625 9.81510417 25.4453125 6 14 C5.34 14 4.68 14 4 14 Z " fill="#002349" transform="translate(2577,447)"/>
<path d="M0 0 C18.48 0 36.96 0 56 0 C56 2.97 56 5.94 56 9 C40.82 9 25.64 9 10 9 C10 18.9 10 28.8 10 39 C21.22 39 32.44 39 44 39 C44 41.97 44 44.94 44 48 C32.78 48 21.56 48 10 48 C10 59.55 10 71.1 10 83 C25.84 83 41.68 83 58 83 C58 85.97 58 88.94 58 92 C38.86 92 19.72 92 0 92 C0 61.64 0 31.28 0 0 Z " fill="#002349" transform="translate(2839,448)"/>
<path d="M0 0 C18.15 0 36.3 0 55 0 C55 2.97 55 5.94 55 9 C39.82 9 24.64 9 9 9 C9 18.9 9 28.8 9 39 C20.55 39 32.1 39 44 39 C44 41.97 44 44.94 44 48 C32.45 48 20.9 48 9 48 C9 59.55 9 71.1 9 83 C25.17 83 41.34 83 58 83 C58 85.97 58 88.94 58 92 C38.86 92 19.72 92 0 92 C0 61.64 0 31.28 0 0 Z " fill="#002349" transform="translate(1879,448)"/>
<path d="M0 0 C3.9358284 -0.9065775 7.08992467 -1.11316151 11 0 C14.83906856 4.05880266 17.20366642 8.81371806 19.75 13.75 C20.4557426 15.04769757 21.16535222 16.34329993 21.87890625 17.63671875 C23.27470373 20.17790967 24.64854821 22.72907636 26.00585938 25.29101562 C28.84481808 30.61955491 31.91610104 35.8100237 35 41 C38.01641744 37.40954261 40.41416923 33.75095315 42.71484375 29.66796875 C43.05246231 29.07252762 43.39008087 28.47708649 43.7379303 27.86360168 C44.80861254 25.9738833 45.87339764 24.08093003 46.9375 22.1875 C49.00590694 18.51972656 51.07889791 14.85491661 53.17456055 11.20263672 C54.27894053 9.26506061 55.36439114 7.31628665 56.41333008 5.34814453 C57.640625 3.14453125 57.640625 3.14453125 60 0 C62.89453125 -0.78125 62.89453125 -0.78125 65.8125 -0.5 C66.78832031 -0.4278125 67.76414062 -0.355625 68.76953125 -0.28125 C69.87361328 -0.14203125 69.87361328 -0.14203125 71 0 C69.54959641 3.95601781 67.67030228 7.38928923 65.47265625 10.98046875 C65.12750473 11.54507812 64.78235321 12.1096875 64.42674255 12.69140625 C63.6890909 13.89778405 62.95012727 15.10336045 62.20996094 16.30819702 C61.04509156 18.21601141 59.89781394 20.1335096 58.75390625 22.05395508 C52.29193365 32.8463131 52.29193365 32.8463131 48.46484375 37.40625 C42.5163773 44.57670585 40.31935043 52.02378705 40.11328125 61.21484375 C40.07732346 62.13635223 40.04136566 63.05786072 40.00431824 64.0072937 C39.68452548 73.33716153 39.77796103 82.66912342 40 92 C36.7 92 33.4 92 30 92 C30.06920654 90.89527344 30.13841309 89.79054688 30.2097168 88.65234375 C31.69993731 61.46628913 28.45823362 43.28816013 12.32226562 21.21289062 C9.26200547 16.97897308 6.53242262 12.58107663 3.8125 8.125 C3.04847456 6.93991233 2.2841929 5.75498976 1.51953125 4.5703125 C0 2 0 2 0 0 Z " fill="#002349" transform="translate(3130,448)"/>
<path d="M0 0 C22.77 0 45.54 0 69 0 C69 2.97 69 5.94 69 9 C59.1 9 49.2 9 39 9 C39 36.39 39 63.78 39 92 C35.7 92 32.4 92 29 92 C29 64.61 29 37.22 29 9 C19.43 9 9.86 9 0 9 C0 6.03 0 3.06 0 0 Z " fill="#002349" transform="translate(2224,448)"/>
<path d="M0 0 C22.77 0 45.54 0 69 0 C69 2.97 69 5.94 69 9 C59.1 9 49.2 9 39 9 C39 36.39 39 63.78 39 92 C36.03 92 33.06 92 30 92 C30 64.61 30 37.22 30 9 C20.1 9 10.2 9 0 9 C0 6.03 0 3.06 0 0 Z " fill="#002349" transform="translate(3052,448)"/>
<path d="M0 0 C22.77 0 45.54 0 69 0 C69 2.97 69 5.94 69 9 C59.1 9 49.2 9 39 9 C39 36.39 39 63.78 39 92 C36.03 92 33.06 92 30 92 C30 64.61 30 37.22 30 9 C20.1 9 10.2 9 0 9 C0 6.03 0 3.06 0 0 Z " fill="#002349" transform="translate(1791,448)"/>
<path d="M0 0 C3.3 0 6.6 0 10 0 C10 27.39 10 54.78 10 83 C24.85 83 39.7 83 55 83 C55 85.97 55 88.94 55 92 C36.85 92 18.7 92 0 92 C0 61.64 0 31.28 0 0 Z " fill="#002349" transform="translate(2643,448)"/>
<path d="M0 0 C3.3 0 6.6 0 10 0 C10 27.39 10 54.78 10 83 C24.52 83 39.04 83 54 83 C54 85.97 54 88.94 54 92 C36.18 92 18.36 92 0 92 C0 61.64 0 31.28 0 0 Z " fill="#002349" transform="translate(3004,448)"/>
<path d="M0 0 C3.3 0 6.6 0 10 0 C10 30.36 10 60.72 10 92 C6.7 92 3.4 92 0 92 C0 61.64 0 31.28 0 0 Z " fill="#002349" transform="translate(1663,448)"/>
<path d="M0 0 C2.97 0 5.94 0 9 0 C9 30.36 9 60.72 9 92 C6.03 92 3.06 92 0 92 C0 61.64 0 31.28 0 0 Z " fill="#002349" transform="translate(2313,448)"/>
<path d="M0 0 C6.93 0 13.86 0 21 0 C21 7.26 21 14.52 21 22 C14.07 22 7.14 22 0 22 C0 14.74 0 7.48 0 0 Z " fill="#002349" transform="translate(1114,340)"/>
<path d="M0 0 C6.93 0 13.86 0 21 0 C21 6.93 21 13.86 21 21 C14.07 21 7.14 21 0 21 C0 14.07 0 7.14 0 0 Z " fill="#002349" transform="translate(816,9)"/>
<path d="M0 0 C6.93 0 13.86 0 21 0 C21 6.93 21 13.86 21 21 C14.07 21 7.14 21 0 21 C0 14.07 0 7.14 0 0 Z " fill="#002349" transform="translate(598,9)"/>
</svg>
